<svg xmlns="http://www.w3.org/2000/svg" width="48" height="48" viewBox="0 0 32 32" id="edit"><path fill="#7a64c9" d="M29.94,5.5a3,3,0,0,0-1.29-1.89L26.28,2.06A2.9,2.9,0,0,0,24,1.63a3,3,0,0,0-1.9,1.29L20.37,5.6a1.42,1.42,0,0,0-.2,0h-13a3,3,0,0,0-3,3v18a3,3,0,0,0,3,3h18a3,3,0,0,0,3-3V9.87l1.38-2.11A3,3,0,0,0,29.94,5.5ZM26.13,26.56a1,1,0,0,1-1,1h-18a1,1,0,0,1-1-1v-18a1,1,0,0,1,1-1h12L11.54,19.05a.91.91,0,0,0-.16.58L11.53,24a2,2,0,0,0,2,1.92,2,2,0,0,0,.69-.12l4.2-1.54a1,1,0,0,0,.5-.39l7.21-11Z"></path></svg>
