<svg xmlns="http://www.w3.org/2000/svg" width="48" height="48" clip-rule="evenodd"><linearGradient id="a" x1="19.629" x2="28.511" y1="3.103" y2="44.89" gradientUnits="userSpaceOnUse"><stop offset="0" stop-color="#f45560"/><stop offset="1" stop-color="#cf1928"/></linearGradient><path fill="url(#a)" fill-rule="evenodd" d="m13.046 28.177 5.717 6.432a1 1 0 0 1-.606 1.654l-4.747.678a1 1 0 0 1-.741-.19l-3.04-2.28a1 1 0 0 1-.319-1.194l2.07-4.83a1 1 0 0 1 1.666-.27m19.445-16.932 2.848 1.424a1 1 0 0 1 .539 1.059l-.632 3.794a1 1 0 0 1-1.516.684l-5.345-3.341a1 1 0 0 1 .016-1.705l3.129-1.877a1 1 0 0 1 .961-.038M11.625 11c.375 0 .676.016 1.125.375.565.452 21.577 15.319 25.591 18.159.386.273.525.77.338 1.204-.603 1.401-1.877 4.383-2.423 5.66a.99.99 0 0 1-.916.602h-2.901a1 1 0 0 1-.736-.323L9.938 13.02a1 1 0 0 1 .35-1.6c.531-.221 1.082-.42 1.337-.42m3.618-4.723A.98.98 0 0 0 14.555 6H6c-.528.264-1 .57-1 1.625v9.139c0 .155.036.308.106.447l.671 1.342a1 1 0 0 1 0 .894L5 21v1l1 1v1l-.707.707a1 1 0 0 0-.293.707v3.172c0 .265.105.52.293.707l.414.414a1 1 0 0 1 .293.707v3.092a1 1 0 0 1-.364.769C4.967 34.822 5 35.122 5 36v4.235c0 .446.302.837.73.962C7.372 41.675 7.638 42 10 42h4c.614 0 1.228-.504 1.61-.795.264-.201.624-.277.922-.131.473.233 1.084.926 1.882.926.642 0 1.664-1 2.212-1 .348 0 1.229.712 1.229.712a1 1 0 0 1 .26.187l.592.808a1 1 0 0 0 .707.293h1.193a.97.97 0 0 0 .634-.227c.338-.291.999-.759 1.759-.773h4.737a1 1 0 0 0 .457-.111c.275-.144.788-.592 1.197-.791a1 1 0 0 1 1.161.21l.162.174c.189.207.455.518.734.518h2.138c.265 0 .52-.105.707-.293l.279-.412a.99.99 0 0 1 1.006-.247c.325.103 1.353.732 2.198.927A1 1 0 0 0 43 41V28a1 1 0 0 0-1-1h-1l.707-.707a1 1 0 0 0 .293-.707v-3.35a1 1 0 0 0-.106-.447l-.572-1.144a1 1 0 0 1 .187-1.154L42 19v-1l.707-.707a1 1 0 0 0 .293-.707v-3.463a1 1 0 0 0-.03-.243l-.833-3.331A1 1 0 0 1 42.4 8.6L43 8V7l-.766-.766a1 1 0 0 0-.562-.282l-3.158-.463-.792.567-.424-.62A1 1 0 0 0 36.472 5H31c-.617 0-.999.397-.999.993C30.001 6.138 30 7 29 7s-1-1-1-1 0-1-1.149-1h-6.3a.99.99 0 0 0-.833.447C19.332 6.036 18.644 7 18.278 7H17a2.5 2.5 0 0 1-1.757-.723"/></svg>