<svg xmlns="http://www.w3.org/2000/svg" width="316" height="316" viewBox="0 0 2009 2009"><g fill="#263d81"><path d="M1709.61 2.77c44.49-4.29 90.08 3.26 130.68 21.99 35.75 16.36 67.61 40.93 92.93 70.96 23.84 28.19 41.98 61.13 53.25 96.28 15.05 46.65 17.95 97.09 8.86 145.23-7.27 38.46-22.37 75.47-44.44 107.82-21.15 31.22-48.74 58.1-80.7 78.15-34.57 21.72-74.37 35.17-115.09 38.42-46.94 3.96-94.93-5.42-136.87-26.87-61.47-30.95-109.28-86.67-132.84-151.11-16.83-45.36-21.75-94.92-15.17-142.8 5.78-41.55 20.61-81.87 43.56-117.01 21.08-32.48 49.01-60.56 81.63-81.45 34.21-22 73.68-35.8 114.2-39.61m35.5 8.95c-2.71 3.02-5.41 6.13-8.47 8.76-20.8.33-41.59-.51-62.39-.2-4.73 4.94-8.75 10.54-13.19 15.72-.78 2.58-.54 5.34-.79 8-.73 15.63-1.96 31.24-2.46 46.88-5.04-3.16-9.96-6.49-14.98-9.67-3.44 5.64-6.58 11.47-10.09 17.06 15.57 25.43 30.91 51.02 46.84 76.22 4.62-1.25 9.23-2.6 13.97-3.36 1.86 3.57 3.89 7.05 6.12 10.4 11.43-3 22.91-5.84 34.39-8.69 16.68 10.13 33.1 20.67 49.85 30.67.64-2.91 1.23-5.85 2.02-8.73 7.86 6.18 15.31 12.86 23.03 19.22-1.6 7.42-3.1 14.86-4.66 22.3 1.78 1.6 3.6 3.16 5.44 4.72-1.47 4.29-3.21 8.49-4.3 12.9 3.18.57 6.33 1.36 9.47 2.18 2.97-4.09 5.91-8.19 8.85-12.3 4.39 4.94 8.54 10.11 12.6 15.34 6.57-4.34 12.88-9.09 19.42-13.49-4.78-5.98-9.78-11.77-14.66-17.66 3.45-7.84 7.3-15.51 10.54-23.45-7.87-8.3-15.48-16.86-23.21-25.3 3.11-.4 6.24-.89 9.36-1.36-.47-2.57-.83-5.17-1.14-7.76-8.72-4.18-17.43-8.41-26.11-12.66-3.21 2.71-6.34 5.53-9.35 8.45-.55.62-1.77.98-2.27.15-6.97-5.93-14.01-11.79-21.02-17.66-8.39.59-16.78 1.23-25.16 1.93.04 2.51.15 5.03.27 7.54-5.15-.93-10.34-1.62-15.5-2.4-6.84-19.41-14-38.72-20.66-58.19 13.7-9.09 27.45-18.12 41.16-27.21-.54-7.69-.65-15.4-1.14-23.09-3.77-6.18-7.99-12.08-12.04-18.08 2.93-3.66 6.54-6.73 9.36-10.48-3.09-2.18-6-4.57-9.1-6.7m-72.85 210.96c3.84 3.19 7.16 6.94 10.77 10.38.71.86 1.89 1.58 1.91 2.85.92 5.88 1.76 11.78 2.64 17.67 10.11 5.94 20.18 11.95 30.36 17.76 6.22-14.35 12.27-28.78 18.35-43.2-3.13-6.75-6.27-13.5-9.21-20.33-18.07-.15-36.13-.87-54.21-.79-.43 5.2-.59 10.44-.61 15.66m196.86 19.73c1.08 7.38 2.43 14.73 3.72 22.07.07 1.32 1.48 1.68 2.43 2.29 2.65 1.45 5.3 2.89 7.96 4.36-2.37 3.62-5.72 6.43-8.26 9.91-.46 1.49.36 3 .57 4.49 2.28 10.77 4.64 21.53 6.76 32.33 4.57.81 9.16 1.61 13.77 2.26 2.52-1.48 4.13-4.17 6.26-6.16 1.25 3.63 3.52 7.09 4.08 10.87-1.82 1.73-3.74 3.35-5.45 5.17 2.54 5.55 4.94 11.16 7.43 16.74 5.15 1.49 10.19 3.42 15.44 4.62.37-3.81-.07-7.87.66-11.53 4.74-1.28 9.55-2.37 14.36-3.42-2.38-6.91-4.85-13.81-7.59-20.58-3.51-3.88-7.37-7.44-11.03-11.15-.94-1.07-2.63-1.98-2.15-3.66.13-3.31.02-6.63.29-9.94 1.38.72 2.88 1.3 4.08 2.37 2.36 3.9 4.07 8.15 6.32 12.12 5.1-.19 10.2-.6 15.32-.59-2.05-9.96-3.79-20-6.01-29.92-2.55-5.56-6.69-10.29-9.27-15.82.24-3.41 1.04-6.74 1.41-10.13-5.1-4.2-10.29-8.3-15.35-12.54-15.27 1.83-30.48 4.07-45.75 5.84M1640.6 270.3c-2.86 9.3-5.8 18.56-8.8 27.81 1.52 3.69 3.08 7.37 4.65 11.06-25.5 21.94-51.16 43.7-76.72 65.56-1.63 1.57-3.93 2.62-4.77 4.83 4.95 4.85 9.32 10.25 14.23 15.15 14.54-10.64 28.93-21.51 43.63-31.94.28-3.61-.62-7.18-.78-10.77 4.95-1.39 10.07-2.25 14.97-3.84 12.77-12.26 25.24-24.86 37.79-37.34.43-.8 2.17-1.53 1.48-2.6-2.3-2.81-5.15-5.21-7.11-8.25-2.31-9.87-4.39-19.81-6.55-29.71-4.01-.03-8.02-.08-12.02.04m85.97 7.27c-1.11 17.46-1.56 34.96-2.56 52.43.13 1.37-.55 3.22.37 4.34 4.24 1.33 8.64 2.14 12.92 3.4 4.58-5.93 9.18-11.84 13.75-17.78 4.64.2 9.29.21 13.93.56 13.55-10.91 27.34-21.52 40.9-32.41-2.25-4.14-4.36-8.34-6.69-12.43-13.06 1.62-26.11 3.31-39.17 4.81-7.9-3.26-15.57-7.11-23.3-10.77-3.46 2.52-6.78 5.22-10.15 7.85m67.5 49.61c-1.62 8.11-2.58 16.41-4.57 24.42-4.34 2.98-8.75 5.84-13.13 8.75-.89.68-2.36 1.14-2.12 2.53-.31 6.32-.44 12.66-.35 18.98 16.99 6.32 33.89 12.89 50.88 19.24 1.64-4.22 3.52-8.35 5.12-12.59-3.97-1.26-7.88-2.67-11.85-3.86.59-11.9 1.37-23.8 2.04-35.7 6.83-9.77 15.22-18.59 21.87-28.49-6.85-4.4-13.29-9.39-20.01-13.97-9.37 6.8-18.57 13.82-27.88 20.69m51.3 49.94c1.18 7.31 3.35 14.54 5.25 21.74 3.92-3.3 8.26-6.19 11.87-9.82-.25-6.7-.79-13.39-1.28-20.08-.39-1.33.55-2.43 1.09-3.53 4.08-6.89 8.13-13.81 12.18-20.73.9-1.31.15-2.89-.02-4.29-1.8-8.97-3.46-17.98-5.32-26.94-3.38-.58-7.01.06-10.44-.52-4.75 21.32-8.92 42.78-13.33 64.17m98.17-33.76c-4.51 8.54-8.88 17.17-13.25 25.78 1.09 6.25 3.18 12.32 4.66 18.51-5.6 4.08-11.2 8.15-16.78 12.26-2.52-3.84-6.34-7.04-7.68-11.49l-.54-.2c-4.55.56-9.11-.13-13.65-.25.26 10.26.51 20.54.52 30.82-5.88.77-12.14-.76-17.74 1.22l-.26-.88c-.1 1.76-1.51 2.94-2.44 4.29-3.24 4.16-6.42 8.36-9.58 12.58-6.64-5.03-13.28-10.06-19.81-15.21-13.16.43-26.32.97-39.46 1.56-.95 7.45-2.24 14.87-3.06 22.34-15.26 6.24-30.84 11.7-46.21 17.67-2.43 3.3-4.95 6.51-7.43 9.76 2.74 2.24 5.76 4.12 8.76 6.01-3.96 6.32-7.88 12.67-11.8 19.01 8.31.03 16.61.94 24.93.77 3.45-5.59 7.32-10.9 10.96-16.37 4.35-6.19 8.17-12.8 12.94-18.69 1.87 1.88 3.54 4.05 5.75 5.57 3.41 1.33 6.98 2.2 10.44 3.42 7.88-4.42 15.69-8.99 23.66-13.22 7.7-.74 15.48-.98 23.22-1.5 3.26 3.57 6.52 7.15 9.77 10.75-3.97 5.18-9.08 9.66-12.49 15.13 1.24 7.16 2.42 14.33 3.88 21.45 21.29-19.19 42.22-38.82 63.4-58.14 2.12-2.2 4.74-3.93 6.55-6.42 10.85-19.3 21.57-38.68 32.51-57.94-5.18-6.42-10.63-12.62-15.83-19.02 2.51-3.56 5.37-6.85 7.76-10.5-2.95-2.56-5.94-5.06-8.81-7.69-.86-.43-1.94-2.48-2.89-1.38"/><path d="M513.5 499.97c.11-50.76-.22-101.53.16-152.28 104.24.11 208.48.08 312.73.02.27 96.92.03 193.85.12 290.78 69.24.01 138.49.02 207.73 0-.04-36.18.46-72.34.25-108.51.68-29.32-.17-58.67.52-87.99-.16-31.39.15-62.77.21-94.16 103.72-.22 207.45.03 311.17-.12.26 96.92.03 193.85.12 290.78 179.07.01 358.15.01 537.22 0 .03 283.01.04 566.01 0 849.02-59.57-.02-119.14 0-178.71-.01-44.78-.11-89.57.22-134.33-.17.16-210.83-.01-421.67.08-632.51-73.59-.15-147.18-.03-220.76-.06-.02 85.08-.01 170.16-.01 255.24.33 25.04-1.42 50.19 1.45 75.14 1.71 14.33 5.42 29.14 14.84 40.46 7.91 9.55 19.72 15.07 31.74 17.29 8.86 1.89 17.94 1.5 26.94 1.86 27.68-.08 55.34 1.09 83.01 1.49.05 80.67.01 161.34.01 242.01-66 .88-132 1.78-198 2.73-43.09-1.5-86.98-3.93-128.06-18.13-31.6-10.76-60.11-29.67-83.4-53.45-10.46-10.29-20.41-21.25-28.25-33.7-11.81-18.43-19.61-39.18-24.7-60.39-11.39-48.21-10.23-98.15-9.31-147.33 1.55-51.97.8-103.98.98-155.98-.01-55.75.01-111.49-.01-167.24-70.24-.02-140.49-.01-210.73 0-.03 210.91.01 421.82-.02 632.74-99.07.01-198.15-.01-297.22.01-.06-37.59 0-75.18-.03-112.78-.76.03-2.29.08-3.05.1-17.55 36.12-42.14 69.87-75.67 92.66-29.32 20.26-64.35 30.89-99.54 34.69-43.17 4.53-87.52 2.06-129.12-10.91-32.85-10.15-63.54-27.13-89.66-49.49-26.91-22.86-48.94-51.08-66.48-81.63-20.33-35.53-34.91-74.13-45.22-113.68C9 1202.69 2.86 1157.65 0 1112.52v-92.13c2.21-37.07 6.45-74.08 14.08-110.45 8.55-41.07 21.17-81.46 39.57-119.23 14.49-29.65 32.69-57.64 55.2-81.84 24.52-26.51 54.4-48.12 87.53-62.57 38.17-16.81 80.08-24.14 121.65-24.3 38.17-.62 76.39 7.83 110.87 24.17 31.8 14.88 60.18 36.42 84.57 61.56.07-69.26.01-138.51.03-207.76m-96.04 328.61c-13.24 1.08-26.41 5-37.5 12.45-13.96 9.31-23.95 23.58-30.4 38.89-7.57 17.46-10.78 36.34-14.15 54.95-9.96 59.77-14.7 120.56-11.89 181.13 1.14 25.52 3.67 51.08 9.59 75.97 5.09 20.96 12.71 41.79 25.92 59.08 10.81 14.34 26.4 25.23 43.96 29.39 18.14 4.25 38.02 3.75 55.04-4.36 14.73-7.13 25.98-19.73 34.74-33.28 10.48-16.18 17.31-34.72 19.46-53.9 2.83-24.9.89-49.99 1.27-74.97-.02-59.96.02-119.92 0-179.87-.59-20.71-2.37-42.12-11.59-61.01-6.22-12.05-14.86-23.19-26.45-30.51-16.98-11.11-37.85-15.82-58-13.96M15.52 1580.75c622.91.01 1245.82-.01 1868.72.01.01 3.93 0 7.87.02 11.82-621.38 53.81-1242.74 107.85-1864.11 161.68-1.63-.05-3.26-.07-4.89-.05.55-24.03.08-48.1.24-72.14.01-33.78-.03-67.55.02-101.32M1819.68 1865.71c5.84-4.24 13.15-6 20.29-5.99 9.03-.18 18.45 1.91 25.68 7.56 8.07 6.15 12.65 15.78 15.16 25.4-7.08 3-14.09 6.18-21.18 9.14-1.54-5.48-3.95-11.22-8.99-14.32-5.33-2.91-12.07-3.01-17.57-.55-7.63 3.67-8.22 15.8-1.63 20.77 4.2 3.28 9.65 3.98 14.65 5.39 8.66 2.37 17.68 5.07 24.53 11.2 8.53 7.75 12.7 19.32 13.08 30.67.25 12.51-3.16 25.58-11.49 35.16-6.76 7.85-16.98 12-27.16 12.79-11.29 1.13-23.37-1.38-32.25-8.72-9.05-7.34-14.26-18.61-15.85-29.98 7.73-2.14 15.35-4.7 23.11-6.73 1.42 6.81 4.64 13.93 11.1 17.3 6.32 3 14.22 3.18 20.47-.14 7.63-4.14 9.32-16.23 2.54-21.9-5.67-4.73-13.34-5.27-20.08-7.56-9.67-2.89-19.48-7.61-25.22-16.25-6-9.03-6.96-20.35-6.17-30.88.97-12.47 6.71-24.9 16.98-32.36M1270.73 1861.64c8.17-.25 16.37-.23 24.55-.01-.07 46.45-.01 92.91-.03 139.37h-24.5c-.02-46.46.03-92.91-.02-139.36M1617.16 1861.41c25.23.15 50.48.13 75.72.01.27 9.19.04 18.38.12 27.58-17 0-34-.01-51 0 0 9.33-.01 18.66 0 28 13.41 0 26.83-.01 40.24 0 .01 8.74.01 17.49.01 26.24-13.39-.01-26.78.07-40.17-.04-.16 10.18-.09 20.38-.04 30.58 16.99-.07 33.97-.03 50.96-.02-.01 9.07 0 18.15 0 27.24h-76c.1-46.53-.21-93.07.16-139.59M15.5 1861.5c15.49.11 30.99-.25 46.47.2 8.01.03 16.38 2.29 22.19 8.07 8.27 7.39 12.51 18.36 13.4 29.24.82 11.18-.59 22.82-5.75 32.89-4.22 8.16-11.66 15.19-20.94 16.87-10.03 1.67-20.24.73-30.35.98.01 17.03-.12 34.07.07 51.1-8.36.34-16.72.05-25.08.15-.02-46.5-.01-93-.01-139.5m24.88 25.98c.28 12.17.03 24.35.13 36.52 5.18-.03 10.35.02 15.53-.01 3.95-.1 8.35-.69 11.15-3.77 6.28-6.47 6.92-16.91 3.34-24.89-1.98-4.47-6.47-7.58-11.35-7.84-6.25-.37-12.55-.42-18.8-.01M210.18 1861.65c8.35-.35 16.71-.08 25.07-.14-.02 18.15.04 36.3-.03 54.45 10.78.01 21.57.17 32.35-.09-.17-18.12-.03-36.24-.07-54.37 8.37-.06 16.73.1 25.09-.09.4 46.5.01 93.03.2 139.54-8.46.02-16.92.2-25.37-.1.17-19.03.05-38.07.06-57.1-10.75.07-21.51-.15-32.26.11.07 19.05.02 38.09.03 57.14-8.35-.03-16.69.05-25.04-.05.03-46.43.11-92.87-.03-139.3M412.18 1861.65c8.35-.34 16.71-.08 25.07-.13 0 46.49.01 92.98 0 139.48-8.35-.02-16.69.04-25.03-.04.02-46.44.1-92.87-.04-139.31M557 1861.51c8.27.06 16.55-.18 24.81.12-.13 37.2-.03 74.41-.05 111.61 14.28.15 28.58-.27 42.85.21-.25 9.17-.04 18.36-.12 27.55-22.5-.01-44.99 0-67.49 0zM734.75 1861.51c8.36.07 16.72-.21 25.07.14-.13 46.43-.08 92.86-.02 139.29-8.35.13-16.7.02-25.04.06-.02-46.5-.01-92.99-.01-139.49M880 1861.51c13.68-.02 27.36-.01 41.05-.01 7.81.14 16.13.37 22.95 4.7 9.61 5.97 15.42 16.69 17.35 27.64 1.72 10.08 1.04 20.59-1.95 30.37-2.88 9-8.37 17.77-17.04 22.14-5.62 2.97-12.1 3.2-18.32 3.4-6.35.02-12.69-.02-19.04.01-.01 17.07.01 34.16 0 51.24h-25zm25.05 25.71c-.11 12.25-.02 24.51-.05 36.78 6.38-.14 12.79.3 19.16-.28 5-.41 9.16-4.13 11.02-8.64 2.76-6.72 2.43-14.71-1.11-21.07-1.98-3.46-5.53-5.96-9.52-6.38-6.47-.8-13.01-.18-19.5-.41M1075 1861.51c13.34-.03 26.68 0 40.02-.02 7.9.13 16.29.14 23.32 4.28 10.64 6.19 16.83 18.11 18.43 30.05 1.37 11.58.3 23.71-4.62 34.4-2.76 6.09-7.19 11.5-12.83 15.12-6.06 3.81-13.4 4.25-20.36 4.41-6.32.01-12.64-.02-18.96.01-.01 17.07 0 34.15 0 51.24h-25zm25.04 25.71c-.09 12.26-.02 24.52-.04 36.78 6.67-.18 13.38.41 20.01-.41 5.79-.78 9.86-5.99 11.2-11.38 1.67-6.74 1.04-14.55-3.38-20.15-2.55-3.2-6.71-4.57-10.67-4.71-5.71-.25-11.42-.02-17.12-.13M1416 1861.51c8.92.03 17.85-.14 26.77.09 10.53 24.84 21.48 49.49 32.17 74.26 1.13 2.01 1.34 4.71 3.27 6.18.21-26.88-.25-53.78.24-80.65 6.34.22 12.69.05 19.04.11.01 46.5.02 93 0 139.5-7.12-.03-14.24.04-21.35-.04-10.6-24.42-21.27-48.82-31.9-73.23-3.07-6.63-5.55-13.56-8.98-20.01-.03 31.09 0 62.18-.01 93.28-6.42 0-12.84-.01-19.25 0-.01-46.5 0-92.99 0-139.49"/></g><g fill="#fff200"><path d="M1745.11 11.72c3.1 2.13 6.01 4.52 9.1 6.7-2.82 3.75-6.43 6.82-9.36 10.48 4.05 6 8.27 11.9 12.04 18.08.49 7.69.6 15.4 1.14 23.09-13.71 9.09-27.46 18.12-41.16 27.21 6.66 19.47 13.82 38.78 20.66 58.19 5.16.78 10.35 1.47 15.5 2.4-.12-2.51-.23-5.03-.27-7.54 8.38-.7 16.77-1.34 25.16-1.93 7.01 5.87 14.05 11.73 21.02 17.66.5.83 1.72.47 2.27-.15 3.01-2.92 6.14-5.74 9.35-8.45 8.68 4.25 17.39 8.48 26.11 12.66.31 2.59.67 5.19 1.14 7.76-3.12.47-6.25.96-9.36 1.36 7.73 8.44 15.34 17 23.21 25.3-3.24 7.94-7.09 15.61-10.54 23.45 4.88 5.89 9.88 11.68 14.66 17.66-6.54 4.4-12.85 9.15-19.42 13.49-4.06-5.23-8.21-10.4-12.6-15.34-2.94 4.11-5.88 8.21-8.85 12.3-3.14-.82-6.29-1.61-9.47-2.18 1.09-4.41 2.83-8.61 4.3-12.9-1.84-1.56-3.66-3.12-5.44-4.72 1.56-7.44 3.06-14.88 4.66-22.3-7.72-6.36-15.17-13.04-23.03-19.22-.79 2.88-1.38 5.82-2.02 8.73-16.75-10-33.17-20.54-49.85-30.67-11.48 2.85-22.96 5.69-34.39 8.69a113 113 0 0 1-6.12-10.4c-4.74.76-9.35 2.11-13.97 3.36-15.93-25.2-31.27-50.79-46.84-76.22 3.51-5.59 6.65-11.42 10.09-17.06 5.02 3.18 9.94 6.51 14.98 9.67.5-15.64 1.73-31.25 2.46-46.88.25-2.66.01-5.42.79-8 4.44-5.18 8.46-10.78 13.19-15.72 20.8-.31 41.59.53 62.39.2 3.06-2.63 5.76-5.74 8.47-8.76M1672.26 222.68c.02-5.22.18-10.46.61-15.66 18.08-.08 36.14.64 54.21.79 2.94 6.83 6.08 13.58 9.21 20.33-6.08 14.42-12.13 28.85-18.35 43.2-10.18-5.81-20.25-11.82-30.36-17.76-.88-5.89-1.72-11.79-2.64-17.67-.02-1.27-1.2-1.99-1.91-2.85-3.61-3.44-6.93-7.19-10.77-10.38M1869.12 242.41c15.27-1.77 30.48-4.01 45.75-5.84 5.06 4.24 10.25 8.34 15.35 12.54-.37 3.39-1.17 6.72-1.41 10.13 2.58 5.53 6.72 10.26 9.27 15.82 2.22 9.92 3.96 19.96 6.01 29.92-5.12-.01-10.22.4-15.32.59-2.25-3.97-3.96-8.22-6.32-12.12-1.2-1.07-2.7-1.65-4.08-2.37-.27 3.31-.16 6.63-.29 9.94-.48 1.68 1.21 2.59 2.15 3.66 3.66 3.71 7.52 7.27 11.03 11.15 2.74 6.77 5.21 13.67 7.59 20.58-4.81 1.05-9.62 2.14-14.36 3.42-.73 3.66-.29 7.72-.66 11.53-5.25-1.2-10.29-3.13-15.44-4.62-2.49-5.58-4.89-11.19-7.43-16.74 1.71-1.82 3.63-3.44 5.45-5.17-.56-3.78-2.83-7.24-4.08-10.87-2.13 1.99-3.74 4.68-6.26 6.16-4.61-.65-9.2-1.45-13.77-2.26-2.12-10.8-4.48-21.56-6.76-32.33-.21-1.49-1.03-3-.57-4.49 2.54-3.48 5.89-6.29 8.26-9.91-2.66-1.47-5.31-2.91-7.96-4.36-.95-.61-2.36-.97-2.43-2.29-1.29-7.34-2.64-14.69-3.72-22.07M1640.6 270.3c4-.12 8.01-.07 12.02-.04 2.16 9.9 4.24 19.84 6.55 29.71 1.96 3.04 4.81 5.44 7.11 8.25.69 1.07-1.05 1.8-1.48 2.6-12.55 12.48-25.02 25.08-37.79 37.34-4.9 1.59-10.02 2.45-14.97 3.84.16 3.59 1.06 7.16.78 10.77-14.7 10.43-29.09 21.3-43.63 31.94-4.91-4.9-9.28-10.3-14.23-15.15.84-2.21 3.14-3.26 4.77-4.83 25.56-21.86 51.22-43.62 76.72-65.56-1.57-3.69-3.13-7.37-4.65-11.06 3-9.25 5.94-18.51 8.8-27.81M1726.57 277.57c3.37-2.63 6.69-5.33 10.15-7.85 7.73 3.66 15.4 7.51 23.3 10.77 13.06-1.5 26.11-3.19 39.17-4.81 2.33 4.09 4.44 8.29 6.69 12.43-13.56 10.89-27.35 21.5-40.9 32.41-4.64-.35-9.29-.36-13.93-.56-4.57 5.94-9.17 11.85-13.75 17.78-4.28-1.26-8.68-2.07-12.92-3.4-.92-1.12-.24-2.97-.37-4.34 1-17.47 1.45-34.97 2.56-52.43M1794.07 327.18c9.31-6.87 18.51-13.89 27.88-20.69 6.72 4.58 13.16 9.57 20.01 13.97-6.65 9.9-15.04 18.72-21.87 28.49-.67 11.9-1.45 23.8-2.04 35.7 3.97 1.19 7.88 2.6 11.85 3.86-1.6 4.24-3.48 8.37-5.12 12.59-16.99-6.35-33.89-12.92-50.88-19.24-.09-6.32.04-12.66.35-18.98-.24-1.39 1.23-1.85 2.12-2.53 4.38-2.91 8.79-5.77 13.13-8.75 1.99-8.01 2.95-16.31 4.57-24.42M1845.37 377.12c4.41-21.39 8.58-42.85 13.33-64.17 3.43.58 7.06-.06 10.44.52 1.86 8.96 3.52 17.97 5.32 26.94.17 1.4.92 2.98.02 4.29-4.05 6.92-8.1 13.84-12.18 20.73-.54 1.1-1.48 2.2-1.09 3.53.49 6.69 1.03 13.38 1.28 20.08-3.61 3.63-7.95 6.52-11.87 9.82-1.9-7.2-4.07-14.43-5.25-21.74"/><path d="M1943.54 343.36c.95-1.1 2.03.95 2.89 1.38 2.87 2.63 5.86 5.13 8.81 7.69-2.39 3.65-5.25 6.94-7.76 10.5 5.2 6.4 10.65 12.6 15.83 19.02-10.94 19.26-21.66 38.64-32.51 57.94-1.81 2.49-4.43 4.22-6.55 6.42-21.18 19.32-42.11 38.95-63.4 58.14-1.46-7.12-2.64-14.29-3.88-21.45 3.41-5.47 8.52-9.95 12.49-15.13-3.25-3.6-6.51-7.18-9.77-10.75-7.74.52-15.52.76-23.22 1.5-7.97 4.23-15.78 8.8-23.66 13.22-3.46-1.22-7.03-2.09-10.44-3.42-2.21-1.52-3.88-3.69-5.75-5.57-4.77 5.89-8.59 12.5-12.94 18.69-3.64 5.47-7.51 10.78-10.96 16.37-8.32.17-16.62-.74-24.93-.77 3.92-6.34 7.84-12.69 11.8-19.01-3-1.89-6.02-3.77-8.76-6.01 2.48-3.25 5-6.46 7.43-9.76 15.37-5.97 30.95-11.43 46.21-17.67.82-7.47 2.11-14.89 3.06-22.34 13.14-.59 26.3-1.13 39.46-1.56 6.53 5.15 13.17 10.18 19.81 15.21 3.16-4.22 6.34-8.42 9.58-12.58.93-1.35 2.34-2.53 2.44-4.29l.26.88c5.6-1.98 11.86-.45 17.74-1.22-.01-10.28-.26-20.56-.52-30.82 4.54.12 9.1.81 13.65.25l.54.2c1.34 4.45 5.16 7.65 7.68 11.49 5.58-4.11 11.18-8.18 16.78-12.26-1.48-6.19-3.57-12.26-4.66-18.51 4.37-8.61 8.74-17.24 13.25-25.78"/></g><path fill="#ed1c24" d="M20.15 1754.26c621.37-53.83 1242.73-107.87 1864.11-161.68-.02 58.14 0 116.28-.01 174.42-622.89.03-1245.78-.05-1868.66.04-.73-3.96 1.13-8.52-1.14-11.95 1.91-.21 3.87-.2 5.7-.83"/></svg>