<svg xmlns="http://www.w3.org/2000/svg" width="48" height="48"><radialGradient id="a" cx="22.415" cy="20.182" r="17.612" gradientTransform="matrix(1 0 0 .9978 0 .009)" gradientUnits="userSpaceOnUse"><stop offset="0" stop-color="#a69d88"/><stop offset="1" stop-color="#3e3a2e"/></radialGradient><path fill="url(#a)" d="M8 20.962s2-.998 2-2.993V7.991s3.959 8.098 14.037 6.54c9.46-1.462 13.385-4.982 15.5-10.264.142-.356.66-.307.722.071C41.28 10.564 43.23 33.274 26 33.933c0 0-10 .998-19-6.984 1-1.996 1-5.987 1-5.987"/><radialGradient id="b" cx="4.477" cy="18.886" r="5.596" gradientTransform="matrix(.8717 -.5701 .5586 .8542 -9.83 6.704)" gradientUnits="userSpaceOnUse"><stop offset="0" stop-color="#7d8587"/><stop offset="1" stop-color="#323538"/></radialGradient><path fill="url(#b)" d="M9.375 19.825c2.009 3.072 1.881 6.71-.286 8.127s-5.551.075-7.56-2.996-1.881-6.71.286-8.127 5.551-.075 7.56 2.996"/><radialGradient id="c" cx="23.16" cy="15.649" r="5.755" gradientTransform="matrix(.9876 0 0 1 .372 0)" gradientUnits="userSpaceOnUse"><stop offset="0" stop-color="#fafafb"/><stop offset="1" stop-color="#c8cdd1"/></radialGradient><ellipse cx="24.074" cy="17.5" fill="url(#c)" rx="5.926" ry="5.5"/><radialGradient id="d" cx="13.213" cy="17.287" r="3.646" gradientUnits="userSpaceOnUse"><stop offset="0" stop-color="#fafafb"/><stop offset="1" stop-color="#c8cdd1"/></radialGradient><ellipse cx="13.787" cy="18.5" fill="url(#d)" rx="3.787" ry="3.5"/><circle cx="25.5" cy="18.5" r="2.5" fill="#999"/><circle cx="25.5" cy="18.5" r="1.5" fill="#323537"/><circle cx="14.545" cy="19.168" r="1.737" fill="#999"/><circle cx="14.545" cy="19.168" r=".827" fill="#323537"/><circle cx="13.466" cy="18.041" r="1.11" fill="#fff"/><linearGradient id="e" x1="2.266" x2="4.182" y1="17.558" y2="19.898" gradientUnits="userSpaceOnUse"><stop offset="0" stop-color="#caced2"/><stop offset="1" stop-color="#8f979e"/></linearGradient><circle cx="3.543" cy="19.118" r="1.882" fill="url(#e)"/><circle cx="23.761" cy="16.894" r="1.665" fill="#fff"/><linearGradient id="f" x1="38.829" x2="36.996" y1="9.327" y2="16.812" gradientUnits="userSpaceOnUse"><stop offset="0" stop-color="#77705f"/><stop offset="1" stop-color="#4b473a"/></linearGradient><path fill="url(#f)" d="M39.883 4.932s-1.149 4.452-2.872 6.798-1.149 5.074.574 5.457.91-.766.239-1.005c-.67-.239-1.532-2.011-.191-3.973 1.34-1.963 2.011-5.17 2.25-7.277"/><path fill="#181612" d="M31.697 28.485s0-2.298-2.394-2.489c0 0 .748.299 1.2.984-3.043 2.676-8.907 1.602-8.907 1.602 5.074 1.394 8.234.157 9.257-.367.47.501.844.27.844.27"/><linearGradient id="g" x1="34.596" x2="33.202" y1="30.031" y2="32.079" gradientUnits="userSpaceOnUse"><stop offset="0" stop-color="#c26715"/><stop offset=".508" stop-color="#b85515"/><stop offset="1" stop-color="#ad3f16"/></linearGradient><path fill="url(#g)" d="M30.644 27.672c1.532.718 8.234 5.314 8.234 5.314s-.862 1.005-1.58 2.011c-1.819-.957-7.915-6.223-7.915-6.223-.096-.48.67-1.342 1.261-1.102"/><linearGradient id="h" x1="42.047" x2="40.275" y1="33.728" y2="36.112" gradientUnits="userSpaceOnUse"><stop offset="0" stop-color="#fafafb"/><stop offset="1" stop-color="#c8cdd1"/></linearGradient><path fill="url(#h)" d="m43.832 37.294-4.955-4.309c-.622-.527-2.106 1.676-1.58 2.011l5.29 3.399z"/><linearGradient id="i" x1="46.488" x2="43.937" y1="40.911" y2="42.684" gradientUnits="userSpaceOnUse"><stop offset="0" stop-color="#6d7479"/><stop offset="1" stop-color="#323538"/></linearGradient><path fill="url(#i)" d="M48 45.576s-6.234-1.787-5.677-6.846c.128-1.161 1.349-1.412 1.349-1.412s2.978-.694 3.257 3.614C47.116 43.805 48 45.576 48 45.576"/></svg>