<svg xmlns="http://www.w3.org/2000/svg" width="48" height="48"><path fill="#4fc3f7" d="M37.64 9.64c-6.57-6.57-18.33-5.45-26.26 2.48C5.4 18.1 3.29 26.24 5.41 32.7c1.12 3.41 5.41 4.48 7.95 1.94l3.7-3.7c.6-.74 1.6-1.15 2.68-.83.81.23 1.47.92 1.68 1.74.24.94-.06 1.83-.65 2.42l-.51.5c-3.07 3.08-.22 8.35 4.01 7.34 2.44-.59 4.87-1.64 7.13-3.14.17-.11.34-.23.5-.34.16-.12.33-.23.49-.36q1.44-1.05 2.76-2.37.285-.285.54-.57c.19-.18.36-.37.52-.57.18-.19.35-.39.52-.6 6.47-7.84 7.01-18.42.91-24.52M25 29a2.5 2.5 0 0 1 0-5 2.5 2.5 0 0 1 0 5"/><path fill="#ffcc80" d="m32 21-2.091-3.486A1 1 0 0 1 30.766 16h6.468a1 1 0 0 1 .857 1.514L36 21l-2 1z"/><circle cx="34" cy="42.5" r="1.5" fill="#b85416"/><path fill="#b85416" d="m32 24 .5 18.5h3L36 24l-2-1z"/><circle cx="24" cy="13" r="3" fill="#ffb300"/><circle cx="15" cy="16.5" r="3" fill="#388e3c"/><circle cx="11" cy="25" r="3" fill="#e53935"/><path fill="#cfd8dc" d="M32 21h4v3h-4z"/></svg>