<svg xmlns="http://www.w3.org/2000/svg" width="48" height="48"><path fill="#f55376" d="M8 24c0 9.941 8.059 18 18 18s18-8.059 18-18H8"/><path fill="#fa91ad" d="M26 6C16.059 6 8 14.059 8 24h18z"/><path fill="#fac8d5" d="M26 6v18h18c0-9.941-8.059-18-18-18"/><path fill="#fa91ad" d="M22.319 34H5.681A1.68 1.68 0 0 1 4 32.319V15.681C4 14.753 4.753 14 5.681 14h16.638c.928 0 1.681.753 1.681 1.681v16.638c0 .928-.753 1.681-1.681 1.681"/><path fill="#eb0000" d="M8 24c0 3.701 1.12 7.139 3.035 10h11.284c.928 0 1.681-.753 1.681-1.681V24z"/><path fill="#f55376" d="M22.319 14H11.035A17.9 17.9 0 0 0 8 24h16v-8.319c0-.928-.753-1.681-1.681-1.681"/><path fill="#fff" d="M14.673 19.012H10v10h2.024v-3.521H14.3a3.397 3.397 0 0 0 3.397-3.397v-.058a3.024 3.024 0 0 0-3.024-3.024m.897 3.346c0 .859-.697 1.556-1.556 1.556h-1.99v-3.325h1.99c.859 0 1.556.697 1.556 1.556z"/></svg>