<svg xmlns="http://www.w3.org/2000/svg" width="48" height="48"><path fill="#006064" d="M42.319 38H25V10h17.319c.928 0 1.681.753 1.681 1.681v24.638c0 .928-.753 1.681-1.681 1.681"/><path fill="#00838f" d="M39 32v8.26A1.74 1.74 0 0 1 37.26 42H14.74A1.74 1.74 0 0 1 13 40.26V32l13-2z"/><path fill="#0097a7" d="M39 23v9H13v-9l12-3z"/><path fill="#26c6da" d="M39 7.74V23H13V7.74c0-.96.78-1.74 1.74-1.74h22.52c.96 0 1.74.78 1.74 1.74"/><path fill="#006064" d="M22.319 34H5.681A1.68 1.68 0 0 1 4 32.319V15.681C4 14.753 4.753 14 5.681 14h16.638c.928 0 1.681.753 1.681 1.681v16.638c0 .928-.753 1.681-1.681 1.681"/><path fill="#fff" d="M14.825 19h-4.673v10h2.024v-3.521h2.276a3.397 3.397 0 0 0 3.397-3.397v-.058A3.025 3.025 0 0 0 14.825 19m.896 3.346c0 .859-.697 1.556-1.556 1.556h-1.99v-3.325h1.99c.859 0 1.556.697 1.556 1.556z"/></svg>