<svg xmlns="http://www.w3.org/2000/svg" width="48" height="48"><path fill="#2d92d4" d="M42.256 6H15.744C14.781 6 14 6.781 14 7.744v7.259h30V7.744C44 6.781 43.219 6 42.256 6"/><path fill="#2150a9" d="M14 33.054v7.202c0 .963.781 1.744 1.743 1.744h26.513c.963 0 1.744-.781 1.744-1.744v-7.202z"/><path fill="#2d83d4" d="M14 15.003h30v9.002H14z"/><path fill="#2e70c9" d="M14 24.005h30v9.05H14z"/><path fill="#00488d" d="M22.319 34H5.681A1.68 1.68 0 0 1 4 32.319V15.681C4 14.753 4.753 14 5.681 14h16.638c.928 0 1.681.753 1.681 1.681v16.638c0 .928-.753 1.681-1.681 1.681"/><path fill="#fff" d="m18.403 19-1.546 7.264L15.144 19h-2.187l-1.767 7.489L9.597 19H7.641l2.344 10h2.352l1.713-7.689L15.764 29h2.251l2.344-10z"/></svg>