<svg xmlns="http://www.w3.org/2000/svg" width="421.333" height="455.394" viewBox="0 0 395 426.932"><g transform="translate(-45.283 -371.105)"><path d="m61.471 468.394 181.573-79.83 181.05 79.83" style="fill:none;stroke:#0038a8;stroke-width:31.95947266;stroke-linecap:round;stroke-linejoin:miter;stroke-miterlimit:4;stroke-opacity:1;stroke-dasharray:none"/><path d="m64.602 492.76 178.512-73.374 176.412 75.958s-2.072 203.73-1.576 233.044c.497 29.313-24.003 65.644-58.278 68.208-34.276 2.563-221.758 1.497-247.817-1.55-26.06-3.048-44.362-30.8-46.728-67.692z" style="fill:#0038a8;fill-opacity:1;fill-rule:evenodd;stroke:none"/><circle cx="383.91" cy="457.813" r="166.55" style="fill:#ff0;fill-opacity:1;stroke:none" transform="matrix(.57567 0 0 .57567 19.215 338.628)"/><path d="M436.783 348.778a115.38 114.246 0 0 1 56.667 50.802" style="fill:none;stroke:#0038a8;stroke-width:23.13287163;stroke-linecap:round;stroke-linejoin:round;stroke-miterlimit:4;stroke-opacity:1;stroke-dasharray:none;stroke-dashoffset:0" transform="matrix(.57567 0 0 .57567 19.215 338.628)"/><ellipse cx="504.64" cy="332.543" rx="48.577" ry="48.585" style="fill:#209bc7;fill-opacity:1;stroke:none" transform="matrix(.57567 0 0 .57567 19.215 338.628)"/><path d="M86.516 580.573s.154 92.172-1.655 138.33c-.604 15.397 5.502 30.482 14.699 42.199 6.91 8.804 17.013 17.446 28.175 18.261 33.214 2.428 103.83-.521 103.83-.521 2.337-40.547-4.911-59.28-42.848-76.082-10.63-5.666-19.142-13.828-28.111-21.488-3.836-3.275-10.957-10.435-10.957-10.435l-7.827-9.391c-9.522 8.344-1.484 23.007 4.912 32.317 3.968 7.656 27.532 19.462 20.686 25.846-17.722 6.568-44.764-27.193-50.642-40.424-19.803-45.047 18.38-76.993-30.262-98.612M396.186 580.573s-.155 92.172 1.655 138.33c.603 15.397-5.503 30.482-14.7 42.199-6.91 8.804-17.012 17.446-28.174 18.261-33.215 2.428-103.83-.521-103.83-.521-2.338-40.547 4.91-59.28 42.847-76.082 10.631-5.666 19.143-13.828 28.112-21.488 3.835-3.275 10.957-10.435 10.957-10.435l7.826-9.391c9.523 8.344 1.484 23.007-4.912 32.317-3.968 7.656-27.532 19.462-20.686 25.846 17.723 6.568 44.765-27.193 50.643-40.424 19.802-45.047-18.38-76.993 30.262-98.612" style="fill:#209bc7;fill-opacity:1;fill-rule:evenodd;stroke:none"/><g style="font-size:37.01111603px;font-style:normal;font-variant:normal;font-weight:700;font-stretch:normal;text-align:start;line-height:125%;letter-spacing:0;word-spacing:0;writing-mode:lr-tb;text-anchor:start;fill:#ce1126;fill-opacity:1;stroke:none;font-family:Swis721 BT;-inkscape-font-specification:&quot;Swis721 BT, Bold&quot;"><path d="M305.321 397.816h10.59q4.301 0 6.253-1.807 1.952-1.844 1.952-5.892 0-3.795-1.916-5.747t-5.71-1.951H305.32zm-.072 9.65v18.94h-10.952v-53.24h23.674q8.386 0 12.687 4.373 4.337 4.337 4.337 12.759 0 8.24-4.229 12.723-4.229 4.445-12.072 4.445zM365.182 421.526q-1.988 3.072-5.205 4.699-3.216 1.59-7.481 1.59-5.711 0-8.82-3.253-3.072-3.253-3.072-9.253 0-5.566 3.073-8.493 3.108-2.928 10.228-4.012 1.627-.253 4.265-.579 6.687-.867 6.687-3.867 0-2.385-1.482-3.397-1.482-1.049-4.952-1.049-3.18 0-4.88 1.265-1.698 1.265-1.698 3.615v.578h-9.83v-.723q0-6.036 4.264-9.47 4.265-3.47 11.783-3.47 8.24 0 12.614 2.856 4.41 2.855 4.41 8.24v22.338q0 2.457.506 3.686.506 1.193 1.698 1.807v1.771H366.34q-.542-1.012-.832-2.24-.289-1.23-.325-2.639m-.18-14.457q-2.567 1.192-5.928 1.915-3.325.723-3.434.76-2.783.794-3.903 1.987-1.085 1.193-1.085 3.29 0 2.168 1.41 3.469 1.41 1.265 3.795 1.265 4.265 0 6.687-2.385Q365 414.948 365 410.79zM394.755 406.129q0 5.53 2.205 8.494 2.24 2.963 6.361 2.963 4.156 0 6.325-2.963 2.205-2.964 2.205-8.639 0-5.385-2.277-8.313-2.241-2.964-6.398-2.964-4.012 0-6.216 3t-2.205 8.422m-9.506 24.072 11.494-.037q.506 1.988 2.06 2.964 1.59.976 4.229.976 4.915 0 6.867-2.096 1.952-2.06 1.952-7.663v-3.506q-1.663 2.856-4.337 4.23-2.639 1.337-6.615 1.337-7.626 0-12.216-5.422-4.59-5.458-4.59-14.494 0-9.542 4.481-15.144 4.518-5.638 12.145-5.638 3.975 0 6.758 1.518 2.82 1.518 4.59 4.626v-4.735h9.976v36.686q0 6.18-1.156 9.434-1.157 3.253-3.94 5.457-2.385 1.844-6.072 2.783-3.65.976-8.35.976-7.879 0-12.396-3.216t-4.88-9.036M430.725 411.659v-9.903h20.313v9.903z" style="font-size:74.02223206px;letter-spacing:1.85055578px;fill:#ce1126;fill-opacity:1" transform="matrix(.57567 0 0 .57567 19.215 338.628)"/></g><g style="font-size:40.46656036px;font-style:normal;font-variant:normal;font-weight:700;font-stretch:normal;text-align:start;line-height:125%;letter-spacing:0;word-spacing:0;writing-mode:lr-tb;text-anchor:start;fill:#ce1126;fill-opacity:1;stroke:none;font-family:Swis721 BT;-inkscape-font-specification:&quot;Swis721 BT, Bold&quot;"><path d="M290.335 504.437v-53.24h10.952v53.24zM327.2 494.822h12.976q4.59 0 6.686-1.662 2.097-1.663 2.097-5.24 0-3.724-2.06-5.35-2.06-1.663-6.796-1.663H327.2zm0-23.023h12.506q4.048 0 5.927-1.373 1.88-1.41 1.88-4.41 0-2.928-1.843-4.229-1.808-1.337-6.036-1.337H327.2zm-10.482 32.638v-53.24h25.084q8.169 0 12.434 3.47 4.3 3.434 4.3 10.012 0 4.048-1.59 6.759-1.59 2.71-4.77 4.192 4.12 1.663 6.144 4.807 2.06 3.109 2.06 7.771 0 7.771-5.06 12t-14.35 4.229zM373.318 504.437v-53.24h10.952v53.24zM438.014 498.148q-2.964 4.012-6.76 5.891-3.758 1.88-8.854 1.88-11.169 0-18.108-7.735-6.904-7.771-6.904-20.385 0-12.723 6.904-20.35 6.903-7.625 18.397-7.625 10.012 0 16.337 4.807 6.325 4.77 7.518 13.156h-11.169q-1.012-4.156-4.156-6.325-3.109-2.169-8.133-2.169-6.686 0-10.517 4.916-3.796 4.88-3.796 13.518 0 8.674 3.976 13.59 3.976 4.915 10.916 4.915 5.204 0 8.71-3.072t4.338-8.422H424.64v-9.108h22.047v28.807h-7.337z" style="font-size:74.02223206px;letter-spacing:4.04665565px;fill:#ce1126;fill-opacity:1" transform="matrix(.57567 0 0 .57567 21.607 340.223)"/></g><g style="font-size:37.011116029999997px;font-style:normal;font-variant:normal;font-weight:700;font-stretch:normal;text-align:start;line-height:125%;letter-spacing:0;word-spacing:0;writing-mode:lr-tb;text-anchor:start;fill:#000;fill-opacity:1;stroke:#ff0;font-family:Swis721 BT;-inkscape-font-specification:&quot;Swis721 BT, Bold&quot;;stroke-opacity:1;stroke-width:1.00056729;stroke-miterlimit:4;stroke-dasharray:none"><path d="M333.988 564.71v-26.62h18.578v4.627H339.39v6.036h11.548v4.626h-11.548v11.332zM359.646 538.018h5.53v16.699q0 3.09 1.23 4.518 1.228 1.41 3.903 1.41 2.71 0 3.94-1.41 1.246-1.41 1.246-4.518v-16.699h5.476v17.295q0 4.898-2.747 7.518-2.729 2.62-7.88 2.62-5.186 0-7.95-2.602-2.748-2.62-2.748-7.536zM390.04 564.71v-26.62h5.728l10.807 18.29v-18.29h5.404v26.62h-5.657l-10.88-18.288v18.289zM426.577 559.903h4.391q3.814 0 5.512-1.987 1.717-2.006 1.717-6.488 0-4.464-1.59-6.56-1.59-2.097-4.97-2.097h-5.06zm-5.367 4.808v-26.62h10.427q6.126 0 9.126 3.307 3.018 3.307 3.018 10.03 0 3.65-1.12 6.433-1.102 2.783-3.217 4.482-1.59 1.265-3.614 1.825-2.024.543-5.675.543z" style="font-style:normal;font-variant:normal;font-weight:700;font-stretch:normal;letter-spacing:3.7011115600000002px;fill:#000;fill-opacity:1;font-family:Swis721 BT;-inkscape-font-specification:Swis721 BT Bold;stroke:#ff0;stroke-opacity:1;stroke-width:1.00056729;stroke-miterlimit:4;stroke-dasharray:none" transform="matrix(.57567 0 0 .57567 19.215 338.628)"/></g></g></svg>