<svg xmlns="http://www.w3.org/2000/svg" xml:space="preserve" width="224.15" height="312.702"><path d="m92.431 305.378-.413-2.949-.569-2.723-.711-2.498-.837-2.274-.947-2.052-1.041-1.833-1.12-1.617-1.182-1.406-1.232-1.198-1.266-.998-1.288-.806-1.301-.62-1.305-.441-1.302-.272-1.299-.104-1.29.059-1.283.222-1.272.389-1.258.563-1.242.744-1.214.935-1.177 1.135-1.128 1.345-1.064 1.559-.984 1.783-.888 2.011-.775 2.242-.646 2.477-.499 2.711-.338 2.949-.334 6.646h-21.77L.733 182.485l3.265-2.127.99-.672.959-.68.928-.687.897-.692.866-.698.836-.704.806-.709.775-.713.745-.718.715-.722.685-.725.656-.73.626-.731.598-.735.568-.737.54-.739.511-.74.484-.744.455-.743.427-.745.401-.745.373-.746.347-.746.319-.746.294-.746.267-.746.242-.747.215-.744.191-.745.166-.744.491-2.591-.02-2.64-.038-.848-.069-.845-.101-.844-.133-.843-.164-.842-.196-.838-.227-.838-.259-.835-.291-.833-.324-.831-.355-.828-.388-.824-.42-.822-.453-.818-.484-.813-.518-.809-.552-.805-.584-.798-.616-.793-.65-.787-.683-.781-.717-.772-.748-.766-.783-.756-.816-.748-.849-.739-.882-.729-.916-.719-.948-.707-.982-.697-3.225-2.176L42.31.641l54.818.631.505 4.782.2 1.561.225 1.501.251 1.441.274 1.382.298 1.323.319 1.262.34 1.205.359 1.147.376 1.089.393 1.031.409.974.423.917.434.862.444.805.455.752.462.697.467.644.472.593.475.542.477.492.476.444.475.398.473.354.471.311.466.271.463.232.46.196.457.162.454.128.453.097 1.862.272 1.934-.606.515-.196.517-.233.526-.272.525-.312.529-.352.531-.392.53-.433.525-.475.524-.516.517-.558.512-.599.502-.64.492-.681.48-.723.467-.762.453-.803.436-.842.42-.882.4-.92.381-.959.359-.996.338-1.034.313-1.071.289-1.108.262-1.143.234-1.179.205-1.214.176-1.248.144-1.283.114-1.316.279-4.759 54.922.633 42.34 126.216-3.823 2.028-1.089.619-1.047.639-1.008.657-.967.675-.926.692-.886.707-.848.722-.809.736-.771.75-.734.763-.698.775-.66.787-.623.797-.59.806-.553.817-.517.825-.484.834-.45.841-.416.847-.383.854-.351.86-.316.864-.286.87-.254.873-.22.876-.19.878-.158.88-.129.882-.097.883-.065.881-.111 2.735.369 2.709.148.86.176.855.205.847.233.841.261.833.289.823.319.816.343.803.372.794.4.782.424.769.453.756.478.742.506.728.532.713.556.697.582.68.608.663.634.645.659.626.683.607.707.587.735.565.757.545.784.522.806.5.832.476.856.452.881.427.904.401 3.969 1.599-38.844 130.452-19.262.805-.91-6.699-.613-3.168-.752-2.922-.871-2.675-.983-2.43-1.074-2.184-1.154-1.945-1.217-1.706-1.266-1.472-1.298-1.247-1.321-1.026-1.328-.817-1.328-.618-1.322-.43-1.313-.25-1.306-.078-1.301.091-1.299.261-1.301.438-1.295.622-1.287.815-1.271 1.019-1.243 1.229-1.199 1.448-1.144 1.669-1.071 1.897-.984 2.125-.883 2.355-.767 2.586-.635 2.818-.492 3.048-.66 6.492-16.974.309-20.49.373z" style="fill:#2e3192;fill-rule:evenodd;stroke:#000;stroke-width:1.25010002;stroke-miterlimit:2.61310005;stroke-opacity:1"/><path stroke-miterlimit="2.613" d="m109.89 308.141-13.689.25c-1.692-37.317-37.583-38.072-38.333-.565H42.083L4.877 184.001c11.665-7.445 18.051-16.489 19.625-25.604h85.388z" clip-rule="evenodd" style="fill:#ed1c24;fill-rule:evenodd;stroke:#000;stroke-width:1.25010002;stroke-miterlimit:2.61310005"/><path stroke-miterlimit="2.613" d="M199.672 158.397c1.262 10.52 8.178 20.164 19.414 24.473l-37.207 124.955-13.529.565c-4.322-39.769-38.334-38.825-41.152-.565l-13.125.239V158.397z" clip-rule="evenodd" style="fill:#c6262f;fill-rule:evenodd;stroke:#000;stroke-width:1.25010002;stroke-miterlimit:2.61310005"/><path stroke-miterlimit="2.613" d="M114.072 32.096c7.652-2.14 14.674-12.338 15.381-27.894l49.045.565 40.588 120.997c-13.27 6.786-19.361 17.752-19.615 28.432h-85.398z" clip-rule="evenodd" style="fill:#ed1c24;fill-rule:evenodd;stroke:#000;stroke-width:1.25010002;stroke-miterlimit:2.61310005"/><path stroke-miterlimit="2.613" d="m44.901 4.202 49.044.565c1.754 18.394 8.67 26.853 15.944 27.677v121.752h-85c.121-10.466-6.032-20.717-17.758-28.432z" clip-rule="evenodd" style="fill:#c6262f;fill-rule:evenodd;stroke:#000;stroke-width:1.25010002;stroke-miterlimit:2.61310005"/><path d="m190.018 238.183.227-.136.334-.219.32-.231.311-.244.295-.255.283-.266.271-.276.258-.287.246-.297.23-.306.219-.315.205-.323.191-.332.18-.339.164-.347.152-.354.137-.36.125-.365.109-.372.098-.377.082-.382.068-.386.057-.391.041-.394.027-.398.012-.4v-.402l-.016-.405-.09-1.252-1.072.354-.27.103-.271.117-.268.13-.268.145-.266.158-.262.172-.26.187-.254.201-.252.216-.244.23-.24.245-.232.261-.227.274-.221.29-.211.305-.203.32-.193.336-.184.351-.174.366-.164.383-.152.397-.141.413-.127.429-.117.445-.102.461-.09.477-.074.493-.059.51-.047.525-.027.543-.037 1.534-.191.104-.152.087.047-.175.055-.224.049-.225.045-.224.041-.225.035-.223.033-.224.027-.222.023-.221.02-.22.014-.219.012-.218.008-.216.004-.214.002-.212-.004-.21-.006-.207-.01-.205-.014-.201-.016-.2-.02-.196-.021-.193-.111-.863-1.023.158-.359.082-.346.106-.332.131-.32.154-.305.177-.289.198-.275.219-.26.238-.244.257-.23.274-.213.29-.201.306-.186.321-.172.334-.158.349-.146.361-.133.374-.121.386-.107.397-.098.409-.086.42-.076.43-.061.421-.016-.131-.115-.879-1.059.163-.391.09-.379.116-.363.143-.35.169-.334.193-.316.217-.301.239-.283.262-.268.281-.252.3-.234.318-.221.335-.203.353-.189.368-.174.383-.16.397-.146.412-.135.425-.018.069-.004-.118-.008-.304-.033-1.688-1.389 1.147-.32.278-.313.285-.305.292-.299.299-.291.307-.285.312-.277.318-.271.324-.266.33-.26.336-.254.342-.246.347-.242.351-.236.357-.232.361-.225.366-.223.371-.215.375-.213.379-.207.384-.203.387-.201.391-.195.395-.191.397-.188.401-.186.404-.182.406-.18.41-.176.412-.008.021.021-.165.029-.308.02-.309.012-.31.006-.31-.004-.311-.008-.31-.014-.311-.018-.311-.021-.31-.023-.311-.027-.309-.029-.309-.029-.308-.029-.306-.029-.305-.027-.303-.145-1.683-1.311 1.237-.301.299-.293.305-.285.313-.277.318-.271.323-.264.331-.256.336-.25.341-.242.347-.236.353-.23.357-.225.362-.217.367-.213.371-.207.376-.201.381-.197.384-.191.389-.186.393-.182.396-.178.399-.174.403-.168.406-.166.409-.16.413-.158.415-.154.419-.152.42-.148.424-.145.425-.379 1.131 1.318.289.588.118.064.011-.139-.003h-.475l-.469.01-.461.018-.453.027-.445.037-.432.046-.281.036.145-.234.156-.29.143-.295.129-.3.115-.304.104-.308.09-.312.078-.314.07-.316.059-.318.051-.32.041-.321.033-.323.027-.323.02-.324.016-.323.008-.323.006-.324v-.322l-.002-.321-.006-.318-.008-.318-.01-.315-.01-.313-.01-.31-.049-1.44-1.588.95-.6.373-.578.376-.559.379-.541.381-.52.384-.5.387-.482.389-.461.392-.443.395-.426.398-.406.4-.389.403-.369.406-.352.41-.332.412-.316.416-.297.418-.281.422-.262.425-.244.429-.229.431-.209.434-.193.437-.176.44-.158.442-.143.445-.125.447-.109.451-.092.452-.076.455-.137 1.033 1.186.305.652.139.676.117.695.097.715.078.732.06.746.041.76.024.77.008.777-.008.783-.022.787-.037.789-.051.787-.063.785-.077.777-.088.771-.099.762-.11.748-.119.736-.129.717-.138.699-.146.678-.153.654-.16.627-.167.602-.173.57-.178.541-.184.506-.188.469-.193.434-.197 1.41-.727-1.311-.84-.367-.21-.385-.197-.398-.183-.412-.17-.426-.158-.436-.146-.447-.135-.457-.122-.463-.112-.371-.079.492.003.498-.01.488-.021.482-.033.473-.044.465-.056.457-.066.449-.077.439-.088.434-.099.428-.109.418-.119.412-.13.404-.139.396-.148.389-.158.383-.167.377-.176.369-.185.363-.193.355-.201 1.301-.78-1.283-.767-.328-.186-.324-.175-.322-.165-.32-.153-.318-.143-.318-.131-.314-.121-.314-.109-.223-.071.393.056.52.062.512.049.506.036.496.023.49.011.482-.001.475-.013.467-.024.461-.036.453-.048.445-.059.439-.07.434-.08.426-.092.418-.102.412-.112.406-.121.4-.132.393-.142.387-.151.381-.159.375-.169.367-.178 1.352-.692-1.23-.85-.314-.207-.314-.196-.311-.185-.309-.175-.309-.163-.309-.151-.307-.142-.307-.131-.305-.119-.305-.109-.307-.098-.305-.088-.305-.077-.01-.002.529-.021.566-.036.557-.051.547-.064.533-.078.52-.093.51-.107.494-.122.482-.137.469-.152.455-.168.439-.185.424-.199.41-.216.393-.232.377-.249.359-.267.34-.282.322-.301.305-.318.281-.335.262-.352.24-.369.217-.386.195-.402.17-.417.146-.434.33-1.207-1.018-.083-.238-.012-.248-.005-.26.001-.27.007-.268.012.24-.063.408-.128.395-.143.379-.157.365-.174.352-.188.336-.203.32-.218.307-.231.291-.246.277-.26.26-.273.246-.286.23-.299.215-.312.201-.323.186-.334.172-.345.156-.356.145-.366.129-.376.117-.386.303-1.166-1.004-.067-.223-.002-.225.01-.225.021-.229.03-.227.039-.229.049-.23.056-.229.064-.23.07zm-153.904.96-.036-1.534-.029-.543-.045-.525-.06-.51-.074-.493-.089-.477-.103-.461-.116-.445-.128-.429-.14-.413-.152-.397-.164-.383-.174-.366-.184-.351-.194-.336-.203-.32-.211-.305-.219-.29-.227-.274-.234-.261-.24-.245-.245-.23-.25-.216-.255-.201-.259-.187-.262-.172-.265-.158-.268-.145-.269-.13-.27-.117-.271-.103-1.071-.354-.09 1.252-.016.405v.402l.013.4.027.398.041.394.055.391.069.386.083.382.097.377.11.372.124.365.138.36.151.354.165.347.178.339.192.332.205.323.219.315.231.306.245.297.258.287.271.276.284.266.296.255.309.244.321.231.333.219.228.136-.088-.029-.23-.07-.229-.064-.229-.056-.229-.049-.228-.039-.227-.03-.226-.021-.224-.01-.223.002-1.005.067.304 1.166.116.386.129.376.143.366.157.356.172.345.186.334.2.323.216.312.23.299.246.286.261.273.277.26.291.246.306.231.321.218.336.203.351.188.365.174.38.157.395.143.409.128.24.063-.268-.012-.269-.007-.259-.001-.249.005-.238.012-1.018.083.33 1.207.147.434.171.417.194.402.218.386.24.369.262.352.282.335.303.318.322.301.341.282.359.267.376.249.393.232.409.216.424.199.44.185.455.168.469.152.481.137.496.122.508.107.521.093.534.078.545.064.557.051.568.036.53.021-.01.002-.306.077-.305.088-.305.098-.306.109-.306.119-.306.131-.307.141-.308.152-.308.163-.31.175-.311.185-.313.196-.314.208-1.229.849 1.349.692.369.178.375.169.381.159.386.151.394.142.4.132.405.121.413.112.419.102.426.092.432.08.439.07.446.059.454.048.46.036.467.024.475.013.482.001.49-.011.497-.023.505-.036.513-.049.52-.062.392-.056-.223.071-.314.109-.316.121-.316.131-.319.143-.32.153-.323.165-.325.175-.328.186-1.282.767 1.3.779.356.202.362.193.369.185.376.176.383.167.39.158.397.148.404.139.412.13.418.119.426.109.434.099.441.088.449.077.458.066.464.056.473.044.481.033.489.021.497.01.493-.003-.371.079-.464.112-.456.122-.447.135-.437.146-.425.158-.413.17-.399.183-.384.197-.367.21-1.309.84 1.408.726.433.198.47.193.506.188.539.184.571.178.601.173.628.167.654.16.678.153.699.146.718.138.734.129.75.119.761.11.771.099.778.088.785.077.787.063.789.051.787.037.783.022.778.008.77-.008.759-.024.747-.041.732-.06.715-.078.696-.097.675-.117.652-.139 1.186-.305-.137-1.033-.076-.455-.093-.452-.108-.451-.125-.447-.142-.445-.159-.442-.176-.44-.193-.437-.21-.434-.228-.431-.245-.428-.262-.426-.28-.422-.297-.418-.315-.416-.333-.412-.352-.41-.37-.406-.388-.403-.406-.4-.425-.398-.444-.395-.462-.392-.482-.39-.5-.386-.52-.384-.539-.381-.56-.379-.579-.375-.599-.374-1.585-.95-.051 1.439-.011.311-.01.313-.009.315-.008.317-.006.319-.002.321.001.322.004.323.01.324.014.323.021.324.026.323.034.323.041.321.05.32.059.318.069.316.079.314.091.312.102.308.116.304.128.301.143.294.157.29.143.234-.28-.036-.433-.046-.443-.037-.454-.027-.461-.018-.469-.01h-.475l-.138.003.063-.011.588-.118 1.319-.289-.379-1.131-.146-.425-.148-.424-.151-.42-.154-.419-.158-.415-.162-.412-.165-.41-.17-.406-.173-.403-.177-.399-.182-.396-.187-.393-.191-.388-.196-.385-.201-.381-.207-.376-.212-.371-.218-.367-.224-.362-.23-.357-.236-.352-.243-.348-.25-.341-.257-.337-.264-.33-.267-.319-.278-.318-.286-.313-.293-.305-.301-.299-1.308-1.236-.147 1.682-.027.303-.029.305-.03.306-.029.308-.029.309-.027.309-.024.31-.021.311-.018.311-.014.311-.008.31-.002.311.005.31.012.31.021.309.029.308.021.164-.008-.021-.176-.412-.179-.41-.182-.406-.185-.404-.188-.401-.191-.397-.196-.395-.199-.391-.204-.387-.208-.384-.212-.379-.216-.375-.221-.371-.227-.366-.231-.361-.236-.357-.242-.351-.248-.347-.253-.342-.259-.336-.265-.33-.272-.324-.278-.318-.284-.312-.292-.306-.298-.3-.306-.292-.313-.285-.32-.278-1.386-1.147-.036 1.688-.008.305-.003.118-.019-.069-.133-.425-.146-.411-.16-.398-.175-.383-.189-.368-.204-.353-.219-.335-.235-.318-.251-.3-.268-.281-.284-.262-.301-.239-.317-.217-.333-.193-.349-.169-.364-.143-.378-.116-.392-.09-1.056-.163-.117.879-.016.13-.061-.42-.074-.43-.086-.42-.098-.409-.109-.397-.121-.386-.133-.374-.146-.361-.161-.357-.172-.334-.186-.321-.2-.306-.214-.29-.228-.274-.245-.257-.26-.238-.275-.219-.29-.198-.305-.177-.319-.154-.333-.131-.346-.106-.358-.082-1.024-.158-.111.863-.022.193-.019.196-.016.2-.013.201-.01.205-.006.207-.003.21.001.212.004.214.008.216.011.218.016.219.019.22.023.221.027.222.032.224.036.223.041.225.045.224.05.225.054.224.046.175-.153-.087zm3.812 5.974.472.004.544-.011 1.166-.056.016-.452.018.089.051.233.057.233.063.233.068.233.051.163-.124-.045-.278-.092-.285-.089-.293-.084-.299-.081-.305-.077-.309-.072-.313-.069zm8.562 6.655.027-.805.062.144.137.284.153.279.092.15-.169-.022zm5.768 4.621.13-.029.57-.143.58-.155 1.05-.305.027.079.118.293.134.289.083.155-.168-.033-.309-.053-.309-.044-.309-.034-.308-.024-.308-.016-.309-.005-.308.005-.308.015zm19.502 1.507 4.701 9.819-11.545 1.976 1.493 1.203.37.271.388.26.406.247.425.235.445.223.464.21.483.196.503.184.524.171.544.157.565.144.587.13.609.115.631.102.654.088.677.073.701.059.725.043.749.029.774.014.799-.002.825-.018.852-.033.877-.049.905-.065.933-.082.961-.099.989-.115 1.018-.133 1.047-.149 1.796-.279-.35-1.403-.205-.69-.233-.671-.26-.652-.287-.634-.311-.614-.335-.596-.359-.578-.381-.559-.402-.541-.422-.521-.442-.504-.46-.485-.477-.468-.494-.451-.509-.433-.524-.415-.538-.399-.55-.382-.562-.364-.573-.349-.583-.333-.592-.316-.601-.301-.608-.285-.615-.269-.621-.255-.625-.239-.63-.225-.633-.21-.635-.195zm108.08-13.299.016.454 1.166.056.545.011.471-.004-.303.062-.311.069-.309.072-.305.077-.301.081-.291.084-.287.089-.277.092-.123.045.051-.163.068-.233.063-.233.059-.233.051-.233zm-6.391 6.366.027.805-.303.031-.17.022.094-.149.152-.28.137-.284zm-8.072 4.794 1.051.305.58.155.57.143.129.029-.057-.005-.309-.015-.309-.005-.307.005-.309.016-.309.024-.309.034-.309.044-.309.053-.168.033.082-.155.135-.289.117-.293zm-17.172 2.14-2.055.585-.637.195-.633.21-.629.225-.625.239-.621.255-.615.27-.607.284-.602.301-.592.316-.584.333-.572.349-.563.364-.551.382-.537.399-.523.415-.51.433-.494.451-.477.468-.461.485-.441.504-.424.521-.402.541-.381.559-.357.577-.336.597-.313.614-.285.634-.26.652-.234.671-.205.69-.35 1.403 1.797.279 1.047.149 1.018.133.99.115.959.099.934.082.904.065.879.049.852.033.824.018.799.002.773-.014.75-.029.725-.043.699-.059.678-.073.654-.088.631-.102.609-.115.586-.13.566-.144.545-.157.523-.171.502-.184.484-.196.465-.21.443-.223.426-.235.406-.247.389-.26.369-.271 1.494-1.203-11.545-1.976zm-39.918 22.784-.22-.175-.221-.175-.222-.174-.223-.173-.224-.172-.225-.171-.227-.17-.228-.169-.229-.169-.229-.167-.23-.167-.232-.166-.233-.164-.234-.164-.236-.163-.236-.162-.238-.16-.239-.161-.24-.159-.241-.158-.242-.157-.2-.129-.007-.008-.108-.138-.157-.21-.199-.27-.237-.324-.273-.372-.307-.417-.339-.456-.369-.491-.397-.522-.423-.55-.448-.571-.47-.59-.492-.604-.511-.614-.529-.619-.545-.622-.559-.618-.572-.612-.583-.601-.592-.586-.6-.566-.607-.544-.613-.517-.616-.484-.619-.449-.621-.409-.623-.364-.624-.316-.624-.262-1.944-.633 4.501 11.356-12.778 1.077 1.618 1.31.354.263.374.257.392.247.411.239.43.229.45.221.469.211.489.2.508.19.528.18.549.168.569.156.59.146.61.132.632.12.652.107.674.094.696.08.718.066.74.052.763.037.785.021.808.006.831-.009.854-.026.877-.042.902-.061.925-.076.95-.096.974-.112.661-.088.067.064.105.102.118.112.132.127.146.14.158.151.171.163.184.175.195.186.207.196.217.207.228.217.237.227.247.236.28.268.513.492.281.269.307.296.574.555.306.297.311.302.316.308.32.313.167.165-.102.101-.291.293-.288.295-.287.296-.284.298-.282.301-.28.301-.278.304-.275.305-.274.307-.271.308-.269.311-.267.312-.265.313-.263.314-.261.316-.259.318-.257.319-.255.321-.253.322-.25.324-.25.325-.247.327-.246.328-.244.33-.241.332-.239.333-.238.334-.236.336-.234.337-.404.59.151.57.084.272.093.258.102.244.111.23.122.217.134.203.147.188.16.173.174.156.188.137.201.115.213.092.222.067.228.043.665.05.274-.605.092-.182.11-.197.127-.213.145-.227.16-.239.175-.251.19-.262.204-.272.217-.282.229-.291.242-.3.253-.307.264-.314.274-.322.284-.328.292-.333.302-.339.309-.345.317-.348.323-.353.329-.355.335-.358.34-.36.344-.363.348-.364.352-.365.354-.366.356-.366.359-.365.245-.249.245.249.358.365.356.366.354.366.352.365.349.364.344.363.34.36.334.358.33.356.324.352.316.348.309.345.301.339.293.333.283.328.275.322.264.314.252.307.242.3.23.291.217.282.203.272.189.262.176.251.16.239.145.227.127.213.111.197.092.182.275.606.664-.051.229-.043.221-.067.215-.092.201-.116.188-.136.174-.155.16-.174.146-.188.135-.203.121-.217.111-.23.102-.244.094-.258.084-.271.152-.57-.406-.591-.234-.337-.234-.336-.238-.334-.24-.333-.24-.332-.244-.33-.244-.328-.248-.327-.248-.325-.252-.324-.252-.322-.256-.321-.256-.319-.26-.317-.262-.317-.262-.314-.266-.313-.268-.312-.268-.311-.271-.308-.273-.307-.275-.305-.277-.304-.281-.301-.281-.301-.283-.297-.287-.297-.287-.295-.291-.293-.102-.101.168-.165.32-.313.316-.308.311-.302.305-.297.301-.29.293-.284.287-.276.281-.269.271-.262.266-.253.256-.245.246-.236.307-.291.377-.359.205-.196.195-.186.184-.175.172-.163.158-.151.146-.139.131-.127.119-.114.104-.101.068-.064.66.088.975.112.949.096.926.076.9.061.879.042.854.026.832.009.807-.006.785-.021.762-.037.74-.052.719-.066.695-.08.674-.094.654-.107.631-.12.609-.132.59-.146.57-.156.549-.168.527-.18.51-.19.488-.2.469-.211.449-.221.43-.229.412-.239.391-.247.375-.256.354-.264 1.619-1.31-12.779-1.077 4.502-11.355-1.943.632-.625.262-.623.316-.623.364-.621.409-.619.449-.617.484-.611.517-.607.543-.6.567-.594.586-.582.601-.572.612-.559.619-.545.621-.527.619-.512.614-.492.604-.471.59-.447.571-.424.55-.396.522-.369.491-.338.456-.307.417-.273.372-.236.324-.199.27-.158.21-.107.138-.008.009-.199.128-.242.157-.24.158-.24.159-.238.161-.238.16-.236.162-.236.163-.232.164-.234.165-.23.166-.23.166-.23.167-.229.169-.227.169-.227.17-.227.171-.223.172-.223.173-.223.174-.221.175-.219.175-.22.177-.217.177-.216.178-.216.179-.214.18-.213.181-.212.182-.188.162-.188-.162-.212-.182-.214-.181-.214-.18-.215-.179-.217-.178-.218-.177z" clip-rule="evenodd" style="fill-rule:evenodd"/><path d="M188.539 238.173c3.844-1.579 5.779-5.39 5.41-9.497-2.58.789-5.357 3.652-5.41 9.497m-153.116 0c-3.844-1.579-5.779-5.39-5.41-9.497 2.58.789 5.358 3.652 5.41 9.497m1.397-3.609c-.262 1.89-.086 4.391 1.016 6.475-1.37-1.059-4.289-2.731-6.178-2.543.972 4.025 3.933 6.272 9.803 5.921.229-5.303-1.125-9.438-4.641-9.853m5.871 5.783c-.291 2.095-.172 4.521 1.05 6.831-1.518-1.174-6.254-1.989-8.348-1.78 1.077 4.462 5.936 6.26 12.443 5.87.254-5.877-1.247-10.46-5.145-10.921m5.889 3.756c3.397 2.737 5.561 6.732 7.353 11.151-6.196 1.856-10.782 1.276-14.467-.67 3.269-2.31 6.023-2.65 9.367-1.671-2.762-2.147-2.309-5.543-2.253-8.81m8.5 4.744c3.208 2.956 5.104 7.085 6.6 11.613-6.305 1.441-10.843.56-14.391-1.625 3.414-2.089 6.186-2.247 9.458-1.049-2.614-2.324-1.938-5.683-1.667-8.939m8.088 4.617c6.607 3.882 9.69 8.11 10.221 12.757-6.227 1.749-17.614-.094-21.265-2.102 3.308-2.254 10.115-2.548 13.442-1.512-2.724-2.193-2.509-5.877-2.398-9.143m9.833 5.485 4.442 9.279-10.958 1.876c3.41 2.871 9.752 4.039 21.323 2.172-1.653-7.346-8.152-11.508-14.807-13.327m112.142-24.385c.262 1.89.086 4.391-1.018 6.475 1.371-1.059 4.289-2.731 6.18-2.543-.973 4.025-3.934 6.272-9.805 5.921-.229-5.303 1.127-9.438 4.643-9.853m-5.872 5.783c.289 2.095.172 4.521-1.051 6.831 1.518-1.174 6.254-1.989 8.348-1.78-1.076 4.462-5.936 6.26-12.441 5.87-.256-5.877 1.246-10.46 5.144-10.921m-5.888 3.756c-3.396 2.737-5.563 6.732-7.354 11.151 6.197 1.856 10.783 1.276 14.467-.67-3.268-2.31-6.023-2.65-9.367-1.671 2.762-2.147 2.309-5.543 2.254-8.81m-8.5 4.744c-3.209 2.956-5.105 7.085-6.602 11.613 6.307 1.441 10.844.56 14.393-1.625-3.414-2.089-6.186-2.247-9.457-1.049 2.613-2.324 1.937-5.683 1.666-8.939m-8.09 4.617c-6.607 3.882-9.689 8.11-10.221 12.757 6.227 1.749 17.615-.094 21.266-2.102-3.309-2.254-10.115-2.548-13.441-1.512 2.722-2.193 2.507-5.877 2.396-9.143m-9.832 5.485-4.441 9.279 10.957 1.876c-3.41 2.871-9.752 4.039-21.322 2.172 1.652-7.346 8.152-11.508 14.806-13.327m-29.834 18.646a58 58 0 0 0-7.146 5.392 58 58 0 0 0-7.146-5.392c-.162.119-8.07-12.165-14.059-13.801l4.31 10.872-12.018 1.013c3.263 2.747 9.636 4.481 20.316 2.99-.033.023 2.976 2.807 6.494 6.27-3.124 3.044-5.871 6.39-8.315 9.977q.53 2.157 1.855 2.19c.842-1.999 4.712-6.19 8.563-10.072 3.851 3.882 7.72 8.073 8.562 10.072q1.328-.034 1.857-2.19c-2.445-3.588-5.191-6.933-8.316-9.977 3.52-3.463 6.527-6.246 6.494-6.27 10.68 1.491 17.053-.243 20.316-2.99l-12.018-1.013 4.309-10.872c-5.988 1.636-13.896 13.92-14.058 13.801" clip-rule="evenodd" style="fill:#00a651;fill-rule:evenodd"/><path d="m125.686 198.078.406-.136.404-.139.402-.143.403-.147.398-.151.397-.154.394-.158.395-.161.39-.166.391-.169.387-.173.385-.176.384-.181.381-.183.379-.187.377-.19.375-.194.375-.199.369-.201.369-.204.367-.208.299-.174 3.051 5.162 6.17 10.438 7.596-.322-11.352-19.046.178-.144.178-.146.179-.149.18-.149.027-.025 11.698 19.612 2.125-.09 11.226-.479.477-11.225.095-2.207-19.658-11.723.045-.056.145-.181.142-.182.143-.184.117-.153 19.111 11.393.321-7.517-10.438-6.169-5.4-3.191.174-.318.197-.367.195-.37.192-.372.185-.374.186-.377.179-.378.176-.38.174-.382.17-.384.166-.386.162-.388.16-.389.154-.392.153-.394.148-.395.145-.397.14-.398.137-.401.133-.402.129-.404.127-.406.121-.408.117-.408.115-.41.096-.36 6.189 1.591 11.745 3.018 5.142-5.6-21.881-5.538.024-.221.021-.231.024-.231.019-.232.004-.044 22.526 5.696 1.439-1.568 7.6-8.276-7.6-8.275-1.494-1.627-22.557 5.702-.006-.069-.025-.231-.025-.23-.028-.229-.023-.195 21.927-5.549-5.087-5.541-18.151 4.666-.105-.37-.121-.405-.125-.403-.129-.402-.131-.401-.137-.399-.139-.396-.144-.395-.147-.394-.15-.391-.154-.39-.158-.388-.161-.386-.166-.385-.168-.381-.171-.38-.174-.379-.18-.377-.182-.374-.185-.372-.19-.371-.193-.368-.195-.367-.199-.364-.204-.363-.162-.285 5.756-3.402 10.438-6.169-.325-7.597-19.599 11.685-.139-.173-.146-.18-.147-.181-.148-.179-.03-.033 20.165-12.026-.09-2.126-.479-11.225-11.226-.478-2.207-.094-12.006 20.132-.039-.032-.18-.148-.18-.146-.181-.145-.168-.134 11.668-19.573-7.516-.32-6.17 10.438-3.42 5.788-.289-.164-.363-.2-.363-.198-.368-.195-.369-.19-.371-.188-.371-.185-.375-.18-.377-.177-.379-.174-.379-.171-.383-.166-.384-.164-.387-.159-.387-.157-.39-.152-.391-.149-.395-.145-.394-.142-.397-.138-.398-.135-.402-.13-.401-.127-.404-.123-.404-.12-.364-.103 1.664-6.478 3.018-11.743-5.6-5.143-5.582 22.065-.201-.025-.23-.026-.231-.025-.23-.023-.065-.007 5.739-22.695-1.567-1.439-8.276-7.601-8.276 7.601-1.627 1.494 5.711 22.587-.049.005-.232.021-.231.023-.23.024-.216.023-5.554-21.948-5.54 5.089 3.018 11.743 1.623 6.315-.357.096-.409.114-.408.118-.405.122-.406.127-.402.129-.401.134-.398.136-.398.141-.395.145-.394.148-.392.151-.39.156-.389.159-.387.163-.384.166-.383.17-.381.173-.378.177-.377.18-.375.184-.373.187-.371.19-.368.194-.367.198-.312.171-3.264-5.522-6.169-10.438-7.516.32 11.468 19.238-.155.119-.182.142-.183.143-.18.145-.055.044-11.799-19.785-2.207.094-11.226.478-.478 11.225-.09 2.126 19.739 11.773-.023.028-.149.178-.149.179-.147.18-.145.178-19.173-11.429-.323 7.597 10.438 6.169 5.285 3.123-.171.295-.208.365-.204.367-.201.37-.198.372-.194.374-.19.376-.187.378-.184.38-.179.382-.177.384-.172.386-.17.388-.165.391-.162.391-.158.394-.155.396-.151.397-.146.4-.143.401-.141.403-.135.404-.132.407-.128.408-.124.409-.115.395-17.559-4.514-5.089 5.541 21.317 5.394-.025.188-.028.23-.027.229-.026.231-.008.076-21.939-5.547-1.494 1.627-7.6 8.275 7.6 8.276 1.439 1.568 21.906-5.538.004.048.021.232.023.231.024.231.023.216-21.265 5.381 5.144 5.6 17.341-4.458.104.386.118.415.121.413.125.412.129.41.132.408.138.407.14.405.144.403.149.402.151.398.156.398.16.396.163.394.167.391.17.391.174.388.178.385.181.384.185.382.189.38.192.378.196.375.199.373.202.371.182.326-4.922 2.909-10.438 6.169.32 7.517 18.678-11.135.127.163.143.181.145.181.146.181.038.046-19.231 11.469.094 2.207.478 11.225 11.226.479 2.126.09 11.486-19.26.04.033.18.148.181.145.18.146.168.131-11.149 18.704 7.597.322 6.169-10.438 2.889-4.886.323.181.371.204.374.201.374.197.378.193.38.191.382.185.384.184.385.178.388.176.39.172.391.168.394.165.396.161.398.156.399.154.402.149.403.146.405.142.406.138.409.134.41.131.412.126.414.122.415.119.39.106-4.439 17.272 5.54 5.089 5.347-21.129.21.023.23.025.232.023.231.022.054.005-5.503 21.766 1.627 1.494 8.276 7.601 8.276-7.601 1.567-1.438-5.53-21.874.069-.007.232-.026.231-.026.228-.027.193-.024 5.377 21.247 5.6-5.143-3.018-11.743-1.462-5.692.398-.115.41-.124.41-.127z" style="fill-rule:evenodd"/><path d="m164.971 187.637-9.766-5.771-6.508-3.846a42.5 42.5 0 0 0 4.854-12.101l7.465 1.919 10.986 2.824 3.135-3.414-20.873-5.281q.236-1.775.326-3.592l23.287 5.888.914-.994 6.789-7.393-6.789-7.393-.969-1.054-23.287 5.888a43 43 0 0 0-.396-3.573l20.943-5.299-3.08-3.354-18.645 4.792a42.5 42.5 0 0 0-5.035-11.929l6.883-4.067 9.764-5.771-.195-4.631-18.713 11.155a43 43 0 0 0-2.289-2.782l20.83-12.423-.059-1.348-.426-10.029-10.029-.426-1.43-.061-12.4 20.792a43 43 0 0 0-2.791-2.274l11.143-18.69-4.551-.194-5.771 9.765-4.084 6.91a42.4 42.4 0 0 0-11.93-4.988l1.986-7.732 2.824-10.986-3.414-3.135-5.332 21.073a43 43 0 0 0-3.578-.379l5.926-23.435-.994-.913-7.394-6.79-7.393 6.79-1.054.968 5.902 23.345q-1.815.096-3.588.339l-5.299-20.942-3.354 3.081 2.824 10.986 1.95 7.587a42.4 42.4 0 0 0-12.059 4.854l-3.919-6.63-5.771-9.765-4.55.194 10.95 18.369a43 43 0 0 0-2.816 2.23L71.938 103.57l-1.43.061-10.029.426-.427 10.029-.057 1.348 20.416 12.176a43 43 0 0 0-2.309 2.77l-18.279-10.896-.197 4.631 9.765 5.771 6.419 3.794a42.5 42.5 0 0 0-5.167 12.048l-18.048-4.639-3.081 3.354 20.335 5.146a43 43 0 0 0-.412 3.569l-22.665-5.73-.968 1.054-6.79 7.393 6.79 7.393.913.994 22.663-5.729q.096 1.816.339 3.588l-20.26 5.127 3.135 3.414 17.855-4.59a42.4 42.4 0 0 0 4.979 12.225l-6.038 3.568-9.765 5.771.193 4.551 17.801-10.612a43 43 0 0 0 2.253 2.803L59.99 196.236l.061 1.43.426 10.028 10.029.427 1.349.058 11.88-19.92a42 42 0 0 0 2.793 2.271l-10.624 17.82 4.631.197 5.771-9.766 3.55-6.006a42.4 42.4 0 0 0 12.224 5.021l-4.57 17.781 3.354 3.08 5.094-20.129a43 43 0 0 0 3.584.354l-5.693 22.516 1.054.969 7.393 6.789 7.394-6.79.994-.912-5.715-22.606a44 44 0 0 0 3.572-.396l5.127 20.261 3.414-3.135-2.824-10.986-1.783-6.94a42.4 42.4 0 0 0 12.09-5.165l3.721 6.295 5.771 9.766 4.631-.197-10.82-18.152a43 43 0 0 0 2.771-2.307l12.098 20.287 1.35-.058 10.029-.427.426-10.028.061-1.43-20.297-12.106a44 44 0 0 0 2.227-2.817l18.242 10.875z" clip-rule="evenodd" style="fill:#fff200;fill-rule:evenodd"/><path d="m122.418 44.085-6.43 4.672 2.457 7.558-6.43-4.671-6.429 4.671 2.456-7.558-6.43-4.672h7.948l2.455-7.558 2.456 7.558zm-40.197 0-6.43 4.672 2.456 7.558-6.43-4.671-6.429 4.671 2.456-7.558-6.43-4.672h7.948l2.455-7.558 2.456 7.558zm80.396 0-6.429 4.672 2.455 7.558-6.43-4.671-6.43 4.671 2.457-7.558-6.429-4.672h7.947l2.455-7.558 2.457 7.558z" style="fill:#fff200;fill-rule:evenodd;stroke:#000;stroke-width:.70000005;stroke-miterlimit:2.61310005;stroke-opacity:1"/><path d="m16.85 195.643 1.103 2.469.39.845.4.84.411.836.422.831.431.826.443.822.452.818.463.812.472.808.484.802.492.797.503.793.513.787.523.783.532.777.542.773.552.766.561.761.57.756.581.75.589.745.598.739.608.734.617.728.626.722.635.716.644.71.652.705.661.698.671.692 1.312 1.327.74-.545.085-.045.254-.124.365-.172.46-.214.547-.252.625-.286.695-.317.758-.343.812-.367.857-.386.897-.405.928-.417.951-.426.967-.435.974-.438.975-.436.967-.435.951-.427.929-.417.898-.406.859-.386.814-.369.76-.343.698-.319.63-.288.553-.255.471-.218.381-.181.292-.143.245-.128.85-.627-1.375-1.237-.686-.635-.677-.642-.666-.65-.655-.658-.645-.665-.634-.672-.623-.68-.613-.687-.601-.694-.59-.702-.579-.708-.567-.716-.556-.722-.544-.728-.533-.737-.521-.742-.509-.748-.496-.755-.485-.761-.472-.767-.461-.774-.447-.779-.435-.785-.422-.791-.41-.797-.396-.803-.384-.807-.37-.814-.358-.819-.344-.824-1.175-2.946-6.823 14.463z" style="fill:#0038a8;fill-opacity:1;fill-rule:evenodd;stroke:#0038a8;stroke-width:.21600001;stroke-miterlimit:2.61310005;stroke-opacity:1"/><path stroke-miterlimit="2.613" d="m39.186 188.183-6.19 13.119-14.514-4.316c3.947 8.991 9.714 17.251 16.93 24.468-.121-.105 20.816-9.343 20.696-9.449-7.583-6.727-13.424-14.834-16.922-23.822z" clip-rule="evenodd" style="fill:#fff;fill-rule:evenodd;stroke:#0038a8;stroke-width:.60000002;stroke-miterlimit:2.61310005;stroke-opacity:1;stroke-dasharray:none"/><path d="m207.316 195.643-1.103 2.469-.389.845-.4.84-.41.836-.422.831-.432.826-.443.822-.451.818-.463.812-.473.808-.484.802-.492.797-.502.793-.514.787-.524.783-.531.777-.543.773-.551.766-.56.761-.572.756-.58.75-.588.745-.6.739-.607.734-.618.728-.625.722-.634.716-.645.71-.652.705-.662.698-.67.692-1.311 1.327-.74-.545-.086-.045-.254-.124-.363-.172-.461-.214-.549-.252-.625-.286-.693-.317-.758-.343-.813-.367-.857-.386-.896-.405-.928-.417-.951-.426-.967-.435-.975-.438-.974-.436-.967-.435-.953-.427-.928-.417-.898-.406-.86-.386-.812-.369-.76-.343-.699-.319-.629-.288-.555-.255-.469-.218-.382-.181-.292-.143-.244-.128-.851-.627 1.375-1.237.687-.635.676-.642.666-.65.654-.658.647-.665.633-.672.623-.68.613-.687.602-.694.589-.702.579-.708.568-.716.555-.722.545-.728.533-.737.519-.742.51-.748.496-.755.484-.761.473-.767.461-.774.447-.779.436-.785.422-.791.41-.797.396-.803.383-.807.371-.814.358-.819.343-.824 1.174-2.946 6.825 14.463z" style="fill:#0038a8;fill-opacity:1;fill-rule:evenodd;stroke:#0038a8;stroke-width:.21600001;stroke-miterlimit:2.61310005;stroke-opacity:1"/><path stroke-miterlimit="2.613" d="m184.98 188.183 6.191 13.119 14.512-4.316c-3.945 8.991-9.713 17.251-16.93 24.468.121-.105-20.814-9.343-20.695-9.449 7.583-6.727 13.424-14.834 16.922-23.822z" clip-rule="evenodd" style="fill:#fff;fill-rule:evenodd;stroke:#0038a8;stroke-width:.60000002;stroke-miterlimit:2.61310005;stroke-opacity:1;stroke-dasharray:none"/><path d="m194.682 220.936-1.869 2.397-1.936 2.34-2.002 2.281-2.066 2.223-2.131 2.161-2.194 2.098-2.252 2.034-2.312 1.968-2.369 1.901-2.426 1.832-2.48 1.763-2.534 1.691-2.584 1.617-2.634 1.544-2.684 1.467-2.732 1.39-2.776 1.311-2.822 1.231-2.863 1.148-2.905 1.064-2.945.981-2.984.894-3.02.806-3.055.717-3.089.626-3.123.534-3.153.44-3.181.344-3.209.248-3.237.151-3.261.05-3.29-.051-3.263-.153-3.237-.253-3.209-.35-3.178-.447-3.147-.543-3.114-.637-3.08-.729-3.044-.819-3.005-.909-2.967-.996-2.926-1.082-2.884-1.168-2.84-1.25-2.795-1.332-2.748-1.413-2.7-1.491-2.65-1.568-2.599-1.643-2.547-1.718-2.491-1.79-2.436-1.861-2.379-1.93-2.32-1.999-2.259-2.066-2.198-2.13-2.134-2.193-2.07-2.256-2.003-2.315-1.935-2.375-1.865-2.433-2.364-3.276 18.22-13.151 1.99 2.782 1.461 1.92 1.516 1.875 1.57 1.827 1.622 1.781 1.674 1.731 1.724 1.682 1.774 1.63 1.82 1.579 1.868 1.523 1.913 1.47 1.957 1.413 2 1.357 2.042 1.298 2.082 1.238 2.122 1.178 2.16 1.115 2.197 1.052 2.232.987 2.267.922 2.3.855 2.333.786 2.363.718 2.394.648 2.422.575 2.449.503 2.475.429 2.501.353 2.524.277 2.547.199 2.569.121 2.589.041 2.621-.041 2.601-.124 2.578-.205 2.555-.284 2.531-.362 2.504-.439 2.479-.516 2.449-.59 2.422-.663 2.388-.735 2.358-.806 2.326-.876 2.289-.944 2.256-1.011 2.217-1.077 2.179-1.143 2.141-1.204 2.1-1.268 2.058-1.328 2.014-1.387 1.971-1.447 1.923-1.504 1.879-1.558 1.83-1.614 1.78-1.667 1.73-1.72 1.678-1.771 1.625-1.819 1.57-1.869 1.514-1.915 1.459-1.962 2.035-2.916 17.096 14.8z" style="fill:#0038a8;fill-opacity:1;fill-rule:evenodd;stroke:#0038a8;stroke-width:.21600001;stroke-miterlimit:2.61310005;stroke-opacity:1"/><path stroke-miterlimit="2.613" d="m180.096 204.424 15.58 13.487c-18.631 26.197-49.234 43.29-83.822 43.29-34.885 0-65.717-17.388-84.3-43.967l16.617-11.993c14.858 21.433 39.634 35.471 67.683 35.471 28.402 0 53.451-14.397 68.242-36.288z" clip-rule="evenodd" style="fill:#fff;fill-rule:evenodd;stroke:#0038a8;stroke-width:.60000002;stroke-miterlimit:2.61310005;stroke-opacity:1;stroke-dasharray:none"/><g style="font-size:12px;font-style:normal;font-variant:normal;font-weight:400;font-stretch:normal;line-height:0%;letter-spacing:0;word-spacing:0;fill:#0038a8;fill-opacity:1;stroke:none;font-family:Swis721 Hv BT;-inkscape-font-specification:Swis721 Hv BT"><path d="m36.196 214.09 1.149 1.454q-.524.548-.493 1.172.03.624.626 1.378.508.642.994.788.486.145.934-.208.651-.516-.4-2.727l-.025-.052-.085-.178q-.573-1.175-.638-1.818a2 2 0 0 1 .197-1.096q.253-.525.813-.967 1.046-.826 2.165-.556t2.179 1.614q.991 1.255.957 2.432t-1.084 2.07l-1.118-1.417q.49-.45.478-1.025-.012-.576-.539-1.242-.457-.58-.931-.715t-.893.196q-.57.45.113 1.894l.286.612q.42.94.567 1.358a4.4 4.4 0 0 1 .203.768q.103.63-.126 1.166t-.788.978q-1.12.885-2.33.616-1.212-.269-2.296-1.64-1.069-1.353-1.048-2.618t1.133-2.238m3.644 8.981 6.607-6.308 4.577 4.795-1.148 1.096-3.297-3.454-1.409 1.345 3.015 3.158-1.13 1.079-3.015-3.158-1.7 1.623 3.451 3.615-1.22 1.165zm10.852 3.567 1.668 1.446q.544.471.99.473.446 0 .857-.472.39-.45.342-.897-.046-.448-.539-.874l-1.733-1.503zm-4.787 2.653 5.984-6.901 3.345 2.9q1.13.98 1.254 1.933.126.954-.736 1.947-.549.633-1.179.825t-1.26-.084q.311.55.216 1.042t-.668 1.21l-.678.84-.025.028q-.522.63-.383.981l-.183.21-1.555-1.348q.052-.21.196-.458t.392-.55l.61-.743q.534-.663.51-1.076-.02-.414-.589-.906l-1.504-1.304-2.328 2.685zm8.988 7.364 2.78-9.253 1.692 1.217-2.418 6.68 5.598-4.39 1.671 1.203-7.864 5.594zm5.155 3.539 4.859-7.735 1.59 1-4.857 7.735zm12.069 3.245q-.825 1.323-2.224 1.617-1.398.294-2.951-.535-1.789-.955-2.186-2.602-.396-1.646.678-3.659 1.099-2.056 2.695-2.61 1.596-.555 3.494.46 1.543.825 2.035 2.054.493 1.23-.153 2.65l-1.635-.874q.262-.74-.002-1.34-.263-.6-1.033-1.013-1.095-.584-2.04-.183-.945.402-1.67 1.759-.702 1.312-.518 2.332.184 1.018 1.228 1.576.755.404 1.442.275.689-.129 1.215-.775zm.261 3.547 3.544-8.419 6.11 2.572-.616 1.463-4.401-1.852-.756 1.794 4.024 1.694-.606 1.44-4.024-1.693-.912 2.166 4.607 1.939-.654 1.555zm15.717 5.702 2.025-8.907 1.844.42-.754 3.32 3.676.835.755-3.32 1.844.42-2.025 8.906-1.844-.419.898-3.948-3.677-.836-.898 3.948zm11.676-2.263q-.177 1.497.39 2.403.567.907 1.762 1.049 1.208.143 1.976-.607.77-.748.946-2.245.177-1.498-.396-2.404-.573-.907-1.78-1.05-1.196-.142-1.958.605-.762.746-.94 2.25m-1.903-.225q.26-2.199 1.61-3.347t3.383-.908 3.083 1.675.792 3.628-1.616 3.344q-1.356 1.15-3.389.91t-3.077-1.675q-1.045-1.434-.786-3.627m10.227 5.66.078-9.135 1.966.017 3.654 6.307.054-6.275 1.854.016-.078 9.134-1.941-.017-3.68-6.307-.053 6.275zm10.885-4.716q.151 1.5.901 2.262.75.763 1.947.642 1.21-.12 1.798-1.019.59-.897.439-2.397t-.907-2.261q-.757-.763-1.966-.64-1.197.12-1.78 1.014-.583.893-.431 2.399m-1.906.192q-.222-2.203.848-3.616t3.106-1.618q2.037-.206 3.373.969 1.336 1.174 1.558 3.37.22 2.198-.855 3.614-1.076 1.418-3.112 1.622-2.036.206-3.367-.97t-1.551-3.371m12.004-2.109 2.162-.448q.705-.146.976-.5.272-.353.145-.967-.12-.582-.505-.817-.384-.234-1.022-.102l-2.246.465zm-.798 5.414-1.852-8.944 4.336-.898q1.464-.303 2.298.177.833.48 1.1 1.767.17.82-.06 1.438-.23.617-.833.95.625.087.96.46.333.375.556 1.266l.255 1.05.008.035q.184.798.548.9l.056.274-2.016.417a1.7 1.7 0 0 1-.245-.434 4.5 4.5 0 0 1-.2-.645l-.22-.937q-.201-.825-.544-1.058t-1.078-.081l-1.949.403.72 3.48zm15.095-7.417 1.693-.659.4 1.03q.174.444.53.575t.854-.063q.543-.21.647-.577.105-.367-.2-1.147l-2.307-5.936 1.751-.68 2.34 6.016q.314.81.366 1.225t-.056.79q-.168.558-.665 1.01-.496.453-1.282.758a4.1 4.1 0 0 1-1.354.3 2.5 2.5 0 0 1-1.151-.224 1.96 1.96 0 0 1-.69-.533q-.274-.336-.618-1.22zm4.652-8 1.705-.834 2.518 5.147q.466.952 1.059 1.204.592.252 1.417-.151.836-.41 1.004-1.03.17-.621-.3-1.58l-2.518-5.146 1.688-.826 2.608 5.33q.74 1.51.29 2.73-.449 1.221-2.036 1.998-1.599.781-2.842.393-1.243-.39-1.984-1.905zm10.734 1.728 1.584-.964q.48.585 1.103.631t1.444-.454q.699-.425.903-.89.203-.465-.093-.953-.432-.71-2.756.066l-.054.018-.186.063q-1.237.425-1.883.413a2 2 0 0 1-1.064-.33q-.49-.315-.86-.924-.695-1.14-.29-2.216t1.867-1.967q1.367-.832 2.53-.655 1.165.178 1.923 1.328l-1.542.938q-.387-.54-.96-.6-.572-.057-1.298.384-.63.385-.822.838-.192.454.085.91.378.62 1.894.118l.642-.21a21 21 0 0 1 1.417-.397q.432-.096.787-.108a2.07 2.07 0 0 1 1.142.266q.504.292.875.901.742 1.22.328 2.389-.412 1.17-1.907 2.079-1.473.896-2.725.722t-2.084-1.396m10.882-3.642-4.428-6.058-2.188 1.6-.962-1.317 5.877-4.297.962 1.317-2.172 1.588 4.428 6.058zm4.855-3.712-5.84-7.023 1.444-1.202 5.84 7.023zm6.814-10.471q1.005 1.194.853 2.614-.15 1.42-1.418 2.643-1.46 1.407-3.148 1.278-1.688-.13-3.272-1.772-1.619-1.678-1.654-3.368t1.514-3.182q1.26-1.215 2.58-1.304 1.322-.09 2.474.961l-1.335 1.287q-.623-.476-1.275-.41-.652.064-1.282.67-.892.862-.802 1.885.091 1.024 1.159 2.13 1.033 1.073 2.059 1.211 1.026.14 1.878-.682.616-.594.706-1.288.09-.693-.363-1.395zm3.45.839-6.956-5.92 4.296-5.048 1.209 1.029-3.095 3.636 1.483 1.262 2.83-3.325 1.19 1.013-2.83 3.325 1.79 1.523 3.24-3.807 1.284 1.094z" style="font-size:12.70000076px;font-weight:700;letter-spacing:.40000001px;fill:#0038a8;font-family:Swis721 BT;-inkscape-font-specification:Swis721 BT Bold"/></g><path d="M33.736 215.37c17.76 24.751 47.72 40.28 78.182 40.522 29.612.236 59.008-13.932 77.271-37.243" style="fill:none;stroke:none"/><path d="m91.906 153.015-12.443-13.702.088-3.806 6.148 1.522 7.671 14.844 1.552.79.82 1.114 1.23-.147.76.176 1.582-2.899.761-2.986s.293-2.807.351-4.216c.063-1.502-.243-3.026 0-4.51.248-1.504.886-2.97 1.751-4.26.707-1.054 1.3-1.128 2.507-1.518 1.46-.47 7.175-.06 7.175-.06-1.151-1.514-1.88.468-2.568-.594.936.234-2.775.826-2.612.129s.76-5.37.776-6.165c.222-1.264.65-2.112 1.345-2.932.655-.772 2.518-1.698 2.518-1.698l.761-2.225c-.16-.036.98-1.925 3.338-1.757 1.522.108 3.61 1.985 2.987 2.4l-.059 2.46s1.253 2.405 1.464 3.748c.17 1.08.123 3.252.123 3.252l-3.64 1.406.995 2.391s1.153-.533 2.426-.755c1.273-.223 2.115-.666 2.38-.731 1.41-.345 2.342-2.694 2.342-2.694l-.021-.754 3.29-.138s-.192 2.27.3 3.252c.525 1.046 2.687 1.404 2.687 1.404l.02 22.646-1.474.585.28 11.699s-.48.804-.884.983c-.472.21-1.549-.006-1.549-.006s-.58-.303-.892-.261c-.329.044-.703.702-.703.702s-.177 1.623-.41 2.401c-.67 2.245-2.81 6.442-2.81 6.442l.13 6.145s1.763.859 2.632 1.268c.83.39 1.718 1.319 1.718 1.319s.943.433.907.754c-.075.663-1.23 1.581-1.23 1.581l-6.2.002s-.521-.781-.823-1.046c-.225-.197-.475-.37-.475-.37l-.738-.565s-.107-2.004-.112-4.49.092-5.454.501-7.38c.28-1.32.996-3.602.996-3.602s.38-1.595.117-2.4c-.296-.906-1.072-1.389-1.862-2.231s-1.303-1.23-1.593-2.044c-.602-1.692-.117-5.387-.117-5.387s-1.271.358-1.698.82c-.677.73-.67 1.985-1.09 2.783-.963 1.836-2.768 2.79-3.536 4.712-.638 1.595-.19 3.175-.645 4.684-.42 1.397-.983 2.499-1.892 3.946s-1.275 1.754-1.68 3.052c-.875 2.806-.76 8.784-.76 8.784.706 1.928 1.162 2.199 1.178 3.689.395.673.29 1.598.29 1.598l-2.289-.076-2.752.176-1.23-1.025.118-13s1.736-1.84 2.439-2.884 1.777-3.381 1.777-3.381-1.113-9.22-.059-13.644c.293-1.229 1.016-2.433 1.724-3.375.977-1.3 3.43-3.184 3.43-3.184s.494-3.076.468-4.626c-.025-1.457-.751-3.256-.751-3.256s.356-1.276.13-1.943c-.255-.76-1.594-2.57-1.594-2.57s-1.203.766-1.783 2.141-.372 2.7-.865 3.813c-.822 1.856-2.633 5.622-2.633 5.622l-2.928 2.81s.09.546.118.82c.032.311.058.937.058.937l1.347 3.455s-2.224.768-3.22.351c-1.103-.46-1.285-2.074-2.226-2.81-.743-.582-1.87-.546-2.576-1.172-.309-.273-.645-1.054-.645-1.054z" style="fill:#000;fill-opacity:1;stroke:#000100;stroke-width:.60000002;stroke-linecap:butt;stroke-linejoin:miter;stroke-miterlimit:4;stroke-opacity:1;stroke-dasharray:none"/><path d="m44.387 204.429 12.707 7.847" style="fill:none;stroke:#00449c;stroke-width:1px;stroke-linecap:butt;stroke-linejoin:miter;stroke-opacity:1"/><path d="m167.57 212.148 12.582-8.639" style="fill:none;stroke:#0038a8;stroke-width:1.4000001;stroke-linecap:butt;stroke-linejoin:miter;stroke-miterlimit:4;stroke-opacity:1"/><path d="M41.156 112.76c11.022-5.584 48.396-8.69 83.477-6.934 19.903.995 35.724 3.418 42.743 6.546l-62.7 3.566z" style="fill:none;stroke:none" transform="matrix(1.29292 0 0 9.00945 -22.983 -877.408)"/><g style="font-size:15.40000057px;font-style:normal;font-variant:normal;font-weight:400;font-stretch:normal;line-height:0%;letter-spacing:0;word-spacing:0;fill:#fff;fill-opacity:1;stroke:none;font-family:Swis721 Hv BT;-inkscape-font-specification:Swis721 Hv BT"><path d="m26.05 132.58.69-2q.282-.813.064-1.301t-.983-.753q-.718-.248-1.21-.013-.495.235-.742.952l-.73 2.111zm1.819.644 3.579 1.236-.715 2.07-10.061-3.475 1.545-4.474q.546-1.584 1.652-2.116 1.105-.533 2.696.017 1.558.538 2.125 1.628.568 1.09.056 2.573zm6.168-6.018-9.65-4.493.93-1.998 3.597 1.675 1.855-3.983-3.597-1.675.93-1.998 9.65 4.493-.93 1.998-4.278-1.992-1.854 3.983 4.278 1.992zm4.876-9.953-9.265-5.241 1.078-1.906 9.265 5.242zm2.204-3.886-8.884-5.864 1.206-1.827 7.244 4.78 2.862-4.336 1.64 1.083zm4.893-7.141-8.454-6.467 1.33-1.74 8.455 6.468zm-.081-9.021 1.414-1.576q.574-.64.563-1.174-.01-.534-.613-1.075-.565-.507-1.11-.482-.547.024-1.054.589l-1.491 1.662zm1.426 1.3 2.818 2.529-1.462 1.63-7.922-7.11 3.161-3.523q1.12-1.248 2.345-1.309 1.224-.06 2.478 1.064 1.226 1.1 1.326 2.325.099 1.226-.948 2.393zm5.883-8.855 1.578-1.41q.641-.573.69-1.106.047-.532-.492-1.135-.507-.566-1.052-.602-.546-.035-1.111.47l-1.665 1.488zm1.275 1.449 2.523 2.823-1.633 1.46-7.093-7.937 3.529-3.154q1.25-1.117 2.474-1.044 1.224.074 2.346 1.33 1.099 1.227 1.063 2.457t-1.205 2.274zm8.448-2.199-6.418-8.492 1.747-1.32 6.418 8.493zm3.54-2.735-5.622-9.04 1.946-1.21 7.532 3.929-3.863-6.21 1.835-1.142 5.622 9.04-1.92 1.194-7.557-3.913 3.862 6.21zm9.421-5.656-4.462-9.664 7.014-3.239.775 1.68-5.052 2.333.951 2.06 4.62-2.133.763 1.653-4.62 2.133 1.149 2.487 5.288-2.442.824 1.785zm12.805-5.35-2.65-10.31 2.218-.57 6.007 6.007-1.822-7.083 2.093-.538 2.65 10.31-2.19.563-6.034-6 1.82 7.083zm13.63-11.483-.938 4.671 2.936-.343zm-1.51-1.97 2.511-.294 5.049 10.127-2.283.267-.972-2.09-4.099.479-.441 2.256-2.29.268zm10.869 9.894.054-8.744-3.158-.02.012-1.9 8.484.053-.012 1.9-3.136-.02-.054 8.745zm6.65.235.984-10.6 2.18.203-.984 10.6zm7.239-4.518q-.344 1.722.232 2.828t1.95 1.38q1.39.276 2.352-.523.963-.8 1.305-2.522.345-1.722-.239-2.83-.582-1.106-1.972-1.383-1.374-.274-2.33.523-.954.798-1.298 2.527m-2.19-.437q.504-2.53 2.178-3.74t4.013-.744q2.34.466 3.428 2.23t.586 4.288-2.184 3.735-4.021.746q-2.34-.465-3.421-2.229-1.082-1.763-.58-4.286m10.839 7.766 3.536-10.04 2.16.761 1.647 8.334 2.43-6.898 2.038.718-3.537 10.04-2.133-.752-1.674-8.343-2.43 6.898zm17.684-1.992-3.362 3.376 2.637 1.335zm-.172-2.477 2.257 1.142-1.384 11.23-2.05-1.037.344-2.28-3.682-1.864-1.614 1.637-2.057-1.04zm1.769 13.018 5.842-8.898 1.83 1.202-4.762 7.255 4.343 2.852-1.079 1.643zm15.918 4.652 1.569 1.422q.637.578 1.171.57t1.078-.609q.51-.562.488-1.108-.022-.547-.584-1.056l-1.654-1.5zm-1.306 1.42-2.544 2.806-1.622-1.471 7.149-7.887 3.507 3.179q1.242 1.125 1.297 2.351t-1.075 2.473q-1.107 1.221-2.333 1.314t-2.388-.96zm8.279 5.896q-1.326 1.151-1.548 2.378t.697 2.285q.93 1.07 2.18 1.027 1.25-.042 2.576-1.194t1.543-2.384q.218-1.23-.711-2.301-.92-1.059-2.162-1.013-1.243.045-2.575 1.202m-1.464-1.686q1.948-1.692 4.013-1.623t3.628 1.87 1.344 3.861-2.162 3.75-4.014 1.614-3.636-1.872-1.34-3.857 2.167-3.743m3.793 12.784 8.745-6.068 1.248 1.798-7.13 4.949 2.962 4.268-1.615 1.121zm4.811 7.197 9.14-5.457 1.122 1.88-9.14 5.457zm9.708 10.505q-1.68.693-3.204.023-1.524-.668-2.433-2.51-1.047-2.117-.307-3.947.74-1.828 3.125-3.007 2.436-1.204 4.324-.645t2.999 2.806q.903 1.827.535 3.326-.367 1.5-1.942 2.407l-.957-1.937q.75-.524.907-1.27.16-.75-.292-1.662-.64-1.296-1.81-1.556-1.168-.26-2.775.533-1.554.768-2.072 1.858-.517 1.09.094 2.328.442.894 1.18 1.238.74.345 1.677.09zm-2.535 3.219 10.083-3.413 2.477 7.317-1.752.593-1.784-5.27-2.15.727 1.632 4.82-1.725.583-1.632-4.819-2.594.878 1.868 5.517-1.862.63z" style="font-size:14.80000019px;font-weight:700;line-height:0%;fill:#fff;font-family:Swis721 BT;-inkscape-font-specification:Swis721 BT Bold"/></g></svg>