<svg xmlns="http://www.w3.org/2000/svg" width="522.667" height="522.667" viewBox="0 0 490 490"><g transform="translate(-17.175 -335.21)scale(.85965)"><circle cx="304.979" cy="674.938" r="285" style="color:#000;clip-rule:nonzero;display:inline;overflow:visible;visibility:visible;opacity:1;isolation:auto;mix-blend-mode:normal;color-interpolation:sRGB;color-interpolation-filters:linearRGB;solid-color:#000;solid-opacity:1;fill:#d4af37;fill-opacity:1;fill-rule:evenodd;stroke:none;stroke-width:4;stroke-linecap:butt;stroke-linejoin:round;stroke-miterlimit:4;stroke-dasharray:none;stroke-dashoffset:0;stroke-opacity:1;color-rendering:auto;image-rendering:auto;shape-rendering:auto;text-rendering:auto"/><circle cx="304.979" cy="674.938" r="275" style="color:#000;clip-rule:nonzero;display:inline;overflow:visible;visibility:visible;opacity:1;isolation:auto;mix-blend-mode:normal;color-interpolation:sRGB;color-interpolation-filters:linearRGB;solid-color:#000;solid-opacity:1;fill:#fff;fill-opacity:1;fill-rule:evenodd;stroke:none;stroke-width:4;stroke-linecap:butt;stroke-linejoin:round;stroke-miterlimit:4;stroke-dasharray:none;stroke-dashoffset:0;stroke-opacity:1;color-rendering:auto;image-rendering:auto;shape-rendering:auto;text-rendering:auto"/><circle cx="303.395" cy="674.264" r="220" style="color:#000;clip-rule:nonzero;display:inline;overflow:visible;visibility:visible;opacity:1;isolation:auto;mix-blend-mode:normal;color-interpolation:sRGB;color-interpolation-filters:linearRGB;solid-color:#000;solid-opacity:1;fill:#d4af37;fill-opacity:1;fill-rule:evenodd;stroke:none;stroke-width:4;stroke-linecap:butt;stroke-linejoin:round;stroke-miterlimit:4;stroke-dasharray:none;stroke-dashoffset:0;stroke-opacity:1;color-rendering:auto;image-rendering:auto;shape-rendering:auto;text-rendering:auto"/><circle cx="303.397" cy="674.264" r="208" style="color:#000;clip-rule:nonzero;display:inline;overflow:visible;visibility:visible;opacity:1;isolation:auto;mix-blend-mode:normal;color-interpolation:sRGB;color-interpolation-filters:linearRGB;solid-color:#000;solid-opacity:1;fill:#0038a8;fill-opacity:1;fill-rule:evenodd;stroke:#000;stroke-width:4;stroke-linecap:butt;stroke-linejoin:round;stroke-miterlimit:4;stroke-dasharray:none;stroke-dashoffset:0;stroke-opacity:1;color-rendering:auto;image-rendering:auto;shape-rendering:auto;text-rendering:auto"/><path d="M326.276 347.642c-13.724-.092-30.381.732-43.307.977l-20.707 23.487 6.691 17.425 8.334 10.48 25.254 5.303 26.746-5.302 8.334-10.48 6.693-17.426z" style="fill:#cfb53b;fill-opacity:1;fill-rule:evenodd;stroke:#ce1126;stroke-width:2;stroke-linecap:butt;stroke-linejoin:miter;stroke-miterlimit:4;stroke-dasharray:none;stroke-opacity:1" transform="translate(0 308.268)"/><path d="M335.887 389.771c-.881.022-1.788.328-2.457.856-1.402 1.105-1.044 3.635-2.41 4.783-10.752 7.183-25.807-3.526-28.211 10.858-2.498-14.12-17.475-3.527-28.182-10.68-1.367-1.149-1.008-3.676-2.41-4.781-.893-.704-2.206-1.015-3.319-.782-2.397.799-3.704 3.047-3.052 5.344.334 1.111 1.303 1.955 2.183 2.711 1.077.924 3.68 2.139 3.68 2.139l14.227 6.17s9.076 3.026 12.816 5.87c1.664 1.267 4.041 4.798 4.041 4.798.016-.146.024-.273.04-.416.008.082.011.154.02.238 0 0 2.377-3.533 4.042-4.799 3.74-2.845 12.816-5.871 12.816-5.871l14.227-6.168s2.605-1.214 3.681-2.139c.88-.755 1.85-1.6 2.184-2.71.651-2.298-.656-4.548-3.053-5.346a3.8 3.8 0 0 0-.863-.075z" style="fill:#cfb53b;fill-opacity:1;fill-rule:evenodd;stroke:#ce1126;stroke-width:2;stroke-linecap:butt;stroke-linejoin:bevel;stroke-miterlimit:4;stroke-dasharray:none;stroke-opacity:1" transform="translate(0 308.268)"/><path d="M309.791 353.701c-4.337.295-8.962.084-13.059.096-2.747 0-5.177 9.092-5.177 9.092l-4.418.125s-1.516-5.384-3.662-5.303l-10.102.379c-2.823.106-3.535 7.703-3.535 7.703l-4.168-.254-3.914-5.43s-3.507-2.231-7.828.885c-.53 4.917 5.302 17.299 5.302 17.299 29.72-.968 59.234-1.088 88.934-1.484 0 0 5.377-12.586 4.668-17.48-4.433-2.957-7.857-.599-7.857-.599l-3.713 4.678-4.333.047s-.811-6.316-3.636-6.318l-10.11-.01c-2.148-.002-3.464 5.435-3.464 5.435l-4.422.035s-2.76-8.997-5.506-8.896z" style="fill:#cfb53b;fill-opacity:1;fill-rule:evenodd;stroke:#ce1126;stroke-width:2;stroke-linecap:butt;stroke-linejoin:round;stroke-miterlimit:4;stroke-dasharray:none;stroke-opacity:1" transform="translate(0 308.268)"/><path d="M296.295 655.443s-1.178-2.145-2.188-2.724c-4.594-2.632-11.26.004-15.714-2.321-4.422-2.503-9.357-6.4-10.09-11.429-1.26-9.77 12.336-10.981 11.379-18.876 1.571 2.03 1.738 3.506 1.298 6.03 2.319.51 2.558-4.057 3.841-6.082 3.922-7.53 10.838-7.077 18.036-8.75 1.834-.426 4.643-3.215 4.643-3.215s1.421-1.027 1.786-1.785c.467-.972.357-3.215.357-3.215l.536 1.697s.503 1.798.223 2.634c-.376 1.119-1.735 1.637-2.366 2.634-.535.845-1.161 2.768-1.161 2.768 11.362-.874 21.68 2.297 18.482 18.08 0 0 2.255-.66 2.857-1.563 1.718-3.418-.419-7.248-.223-10.357.135-1.618 2.143-5 2.143-5s-.861 3.091-.67 4.643c.198 1.596.932 3.13 1.83 4.464 1.524 2.26 4.362 3.43 5.849 5.715 1.742 2.675 3.69 5.799 3.348 8.973-.31 2.869-2.56 5.327-4.687 7.277-2.258 2.069-5.21 3.35-8.125 4.285-3.561 1.143-7.556.374-11.116 1.518-2.669.784-3.83 2.056-5.313 4.197z" style="fill:#ce1126;fill-opacity:1;fill-rule:evenodd;stroke:#000;stroke-width:.1;stroke-linecap:butt;stroke-linejoin:miter;stroke-miterlimit:4;stroke-dasharray:none;stroke-opacity:1"/><path d="M278.676 628.54s-3.764 3.432-4.546 5.745c-.768 2.273-.93 5.043.126 7.198 1.093 2.231 3.522 3.699 5.809 4.672 2.753 1.17 5.68 1.108 8.902 1.136 2.036.018 2.819 1.505 4.356 1.515.865.006 2.462-.82 2.462-.82s-2.097-.003-2.967-.502c-.74-.424-.239-1.91-1.642-1.96-.898-.033-19.721-.388-12.5-16.984m7.639-1.83s-.741 2.284-.505 3.408c.594 2.823 2.758 5.112 4.609 7.324 1.023 1.222 2.796 1.808 3.535 3.22.591 1.128.505 3.788.505 3.788l3.22-1.578s-.791-.199-1.01-.505c-.555-.778.011-1.97-.379-2.842-1.426-3.188-5.352-4.785-6.818-7.954-.394-.851.038-1.973-.442-2.778-.584-.98-2.715-2.084-2.715-2.084m9.597-13.259s.548.9.378 1.327c-.443 1.113-2.214 1.017-3.093 1.83a16.1 16.1 0 0 0-3.851 5.493c-.526 1.244-1.044 2.659-.758 3.978.224 1.033 1.83 2.588 1.83 2.588s1.625-2.553 2.084-3.977c.503-1.558-.024-3.39.695-4.861.965-2.275 4.318-2.893 5.114-5.304.274-.832-2.4-1.073-2.4-1.073" style="fill:#fcd116;fill-opacity:1;fill-rule:evenodd;stroke:none;stroke-width:.1;stroke-linecap:butt;stroke-linejoin:miter;stroke-miterlimit:4;stroke-dasharray:none;stroke-opacity:1"/><path d="M296.543 618.06s1.296.505 1.326 1.073c.048.921-1.499 1.157-1.957 1.957-.25.434-.38 1.452-.38 1.452l.127 1.2s-1.419-1.49-1.326-2.4c.08-.771.904-1.29 1.515-1.767.297-.232.863-.159 1.01-.505.139-.325-.315-1.01-.315-1.01m.947 7.26s5.586 2.997 6.313 6.819c.614 3.221-1.285 6.518-1.01 9.786.168 1.987 1.044 3.559 2.084 5.177 0 0-3.65-.715-4.483-2.147-1.94-3.338 1.068-7.7.82-11.554-.084-1.323.05-2.28-.786-3.899-1.023-1.98-2.938-4.182-2.938-4.182" style="fill:#fcd116;fill-opacity:1;fill-rule:evenodd;stroke:none;stroke-width:.1;stroke-linecap:butt;stroke-linejoin:miter;stroke-miterlimit:4;stroke-dasharray:none;stroke-opacity:1"/><path d="M299.889 623.868s2.532-2.634 4.167-2.588c3.186.089 6.368 2.659 7.829 5.492 1.31 2.545.944 5.908-.063 8.587-.647 1.717-3.32 2.352-3.6 4.166-.152.997 1.2 2.778 1.2 2.778s-3.098-.63-3.472-1.894c-.726-2.456 3.134-4.249 3.662-6.755.426-2.025.461-4.358-.505-6.187-.86-1.628-2.566-2.837-4.293-3.473-1.541-.567-4.925-.126-4.925-.126" style="fill:#fcd116;fill-opacity:1;fill-rule:evenodd;stroke:none;stroke-width:.1;stroke-linecap:butt;stroke-linejoin:miter;stroke-miterlimit:4;stroke-dasharray:none;stroke-opacity:1"/><path d="M307.718 619.449s1.585-1.695 2.651-1.957c1.344-.332 2.859.027 4.104.63 1.943.943 3.823 2.463 4.735 4.42 1.354 2.904 1.454 6.537.505 9.597-.604 1.95-2.274 3.425-3.725 4.861-.748.74-2.302.866-2.525 1.894-.168.773 1.136 2.084 1.136 2.084s-2.454-1.084-2.588-2.21c-.246-2.065 2.66-3.229 3.662-5.05.796-1.45 1.725-2.96 1.83-4.61.126-1.95-.44-4.009-1.452-5.682-.747-1.237-1.931-2.249-3.22-2.904-1.552-.79-5.113-1.073-5.113-1.073m23.991 10.606s1.704 4.169 1.136 6.187c-.777 7.223-16.872 9.68-17.425 11.554-.055.52 1.2 1.01 1.2 1.01s-2.063.099-2.968-.315c-.42-.193-1.148-.507-1.01-.947 1.277-4.052 12.662-5.035 16.541-10.228.575-.77.21-1.99.758-2.778.414-.594 1.436-.619 1.768-1.263.491-.954 0-3.22 0-3.22" style="fill:#fcd116;fill-opacity:1;fill-rule:evenodd;stroke:none;stroke-width:.1;stroke-linecap:butt;stroke-linejoin:miter;stroke-miterlimit:4;stroke-dasharray:none;stroke-opacity:1"/><ellipse cx="286.464" cy="683.681" rx="97.327" ry="197.085" style="color:#000;clip-rule:nonzero;display:inline;overflow:visible;visibility:visible;opacity:1;isolation:auto;mix-blend-mode:normal;color-interpolation:sRGB;color-interpolation-filters:linearRGB;solid-color:#000;solid-opacity:1;fill:none;fill-opacity:1;fill-rule:evenodd;stroke:#fff;stroke-width:8.00001144;stroke-linecap:butt;stroke-linejoin:round;stroke-miterlimit:4;stroke-dasharray:none;stroke-dashoffset:0;stroke-opacity:1;color-rendering:auto;image-rendering:auto;shape-rendering:auto;text-rendering:auto" transform="rotate(-1.698)skewX(-.136)"/><path d="M435.714 529.505c32.16 30.472-29.812 145.757-90 202.143-49.54 46.411-146.993 119.427-180 82.857-35.207-39.008 36.146-148.567 87.143-200.714 46.926-47.985 145.495-119.688 182.857-84.286z" style="fill:none;fill-rule:evenodd;stroke:#fff;stroke-width:8;stroke-linecap:butt;stroke-linejoin:miter;stroke-miterlimit:4;stroke-dasharray:none;stroke-opacity:1"/><ellipse cx="280.193" cy="677.797" rx="195.952" ry="73.667" style="color:#000;clip-rule:nonzero;display:inline;overflow:visible;visibility:visible;opacity:1;isolation:auto;mix-blend-mode:normal;color-interpolation:sRGB;color-interpolation-filters:linearRGB;solid-color:#000;solid-opacity:1;fill:none;fill-opacity:1;fill-rule:evenodd;stroke:#fff;stroke-width:8.00001717;stroke-linecap:butt;stroke-linejoin:round;stroke-miterlimit:4;stroke-dasharray:none;stroke-dashoffset:0;stroke-opacity:1;color-rendering:auto;image-rendering:auto;shape-rendering:auto;text-rendering:auto" transform="rotate(-2.126)skewX(-.166)"/><path d="M165.176 539.49c-28.819 32.61 39.308 145.914 103.1 195.855 52.506 41.106 152.793 105.308 181.912 66.657 31.06-41.228-45.549-143.596-99.155-191.475-49.465-44.18-152.375-108.923-185.857-71.037Z" style="fill:none;fill-rule:evenodd;stroke:#fff;stroke-width:8;stroke-linecap:butt;stroke-linejoin:miter;stroke-miterlimit:4;stroke-dasharray:none;stroke-opacity:1"/><path d="M77.875 716.856a229.51 229.51 0 0 1 103.538-236.998 229.51 229.51 0 0 1 258.44 9.872 229.51 229.51 0 0 1 85.156 244.206" style="color:#000;clip-rule:nonzero;display:inline;overflow:visible;visibility:visible;opacity:1;isolation:auto;mix-blend-mode:normal;color-interpolation:sRGB;color-interpolation-filters:linearRGB;solid-color:#000;solid-opacity:1;fill:none;fill-opacity:1;fill-rule:evenodd;stroke:none;stroke-width:.98602533;stroke-linecap:butt;stroke-linejoin:round;stroke-miterlimit:4;stroke-dasharray:none;stroke-dashoffset:0;stroke-opacity:1;color-rendering:auto;image-rendering:auto;shape-rendering:auto;text-rendering:auto"/><path d="M56.58-772.649a266.93 266.93 0 0 1 257.558-169.058 266.93 266.93 0 0 1 245.358 186.325l-254.517 80.444Z" style="color:#000;clip-rule:nonzero;display:inline;overflow:visible;visibility:visible;opacity:1;isolation:auto;mix-blend-mode:normal;color-interpolation:sRGB;color-interpolation-filters:linearRGB;solid-color:#000;solid-opacity:1;fill:none;fill-opacity:1;fill-rule:evenodd;stroke:none;stroke-width:1.14679039;stroke-linecap:butt;stroke-linejoin:round;stroke-miterlimit:4;stroke-dasharray:none;stroke-dashoffset:0;stroke-opacity:1;color-rendering:auto;image-rendering:auto;shape-rendering:auto;text-rendering:auto" transform="scale(1 -1)"/><g style="font-style:normal;font-variant:normal;font-weight:700;font-stretch:normal;font-size:25px;line-height:125%;font-family:&quot;Swis721 BT&quot;;-inkscape-font-specification:&quot;Swis721 BT, Bold&quot;;text-align:start;letter-spacing:0;word-spacing:0;writing-mode:lr-tb;text-anchor:start;fill:#000;fill-opacity:1;stroke:none;stroke-width:1px;stroke-linecap:butt;stroke-linejoin:miter;stroke-opacity:1"><path d="m56.934 710.348-.356-2.687q-.399-3-1.723-4.054-1.347-1.051-4.19-.674-2.866.38-3.814 1.646-.974 1.245-.56 4.357l.368 2.776zm20.21 3.627-34.475 4.577-1.48-11.148q-.678-5.105 1.308-7.646 1.987-2.542 7.18-3.232 5.105-.677 7.93 1.385 2.8 2.043 3.45 6.946l.622 4.679 14.618-1.941zm-23.221-30.909-.07-3.726q-.053-2.822-1.202-3.885-1.15-1.085-4.063-1.03-2.596.049-3.612 1.265t-.957 4.377l.06 3.184zm20.191 5.876-34.772.655-.218-11.606q-.1-5.26 2.002-7.604 2.079-2.366 6.91-2.457 3.388-.063 5.376 1.141 1.965 1.206 2.349 3.615 1.132-4.629 7.7-4.956l.45-.009 4.603-.267q1.963-.127 3.152-.556 1.167-.429 2.008-1.303l.145 7.677q-.876.287-2.047.445-1.194.158-3.361.244l-3.634.159-.925.017q-3.026.057-4.13 1.365t-1.03 5.26l.04 2.213 15.264-.288zm-16.887-34.357q8.54.848 10.863.08 2.302-.793 2.57-3.49.263-2.651-1.798-3.832-2.082-1.205-10.711-2.061-8.63-.857-10.93-.087t-2.566 3.444 1.838 3.882 10.734 2.064m-.654 6.585q-5.505-.547-8.735-1.39-3.252-.844-4.806-2.11-2.21-1.74-3.014-3.93t-.464-5.607 1.557-5.405q1.22-1.99 3.73-3.284 1.818-.931 5.148-1.1 3.332-.191 8.815.353 5.461.542 8.713 1.387 3.23.843 4.83 2.09 2.209 1.763 3.013 3.954.803 2.19.464 5.606t-1.558 5.405q-1.218 1.99-3.727 3.261-1.773.936-5.105 1.127-3.355.19-8.86-.357m20.504-25.992-34.032-7.166 3.746-17.79 5.569 1.173-2.41 11.447 8.043 1.694 2.276-10.806 5.436 1.145-2.276 10.806 14.983 3.155zm4.933-22.044-33.155-10.5 5.393-17.03 5.511 1.746-3.45 10.894 7.665 2.427 3.211-10.14 5.253 1.663-3.21 10.14 9.128 2.891 3.531-11.152 5.598 1.773zm-4.292-26.098 2.594-5.94 2.049.895q2.938 1.284 4.33 1.03 1.382-.284 2.168-2.085.822-1.883.295-3.272-.518-1.409-2.38-2.222-1.428-.624-2.74-.384-1.334.231-3.942 1.803l-3.481 2.102q-4.45 2.739-6.7 3.038-2.24.278-4.93-.897-4.015-1.754-5.252-5.128t.589-7.555q1.934-4.428 5.386-5.73t7.984.678q.455.198.694.328.249.108.426.21l-2.459 5.63-.848-.371q-2.587-1.13-4.075-.77t-2.338 2.306q-.624 1.428-.137 2.626.476 1.169 1.966 1.82 2.007.877 6.049-1.72l.068-.044 3.643-2.303q3.845-2.485 6.457-2.823 2.591-.347 5.778 1.045 4.346 1.898 5.621 5.412t-.74 8.13q-2.098 4.8-5.612 6.075-3.505 1.254-8.596-.97-.538-.234-1.743-.86zm11.004-24.374 3.233-5.618 1.938 1.116q2.78 1.6 4.191 1.5 1.404-.13 2.384-1.833 1.025-1.781.654-3.22-.36-1.457-2.121-2.471-1.35-.777-2.682-.683-1.35.083-4.116 1.357l-3.691 1.706q-4.724 2.232-6.993 2.281-2.258.03-4.802-1.435-3.798-2.185-4.655-5.675t1.417-7.444q2.41-4.188 5.985-5.102 3.574-.913 7.86 1.553.431.248.655.403.235.135.4.256l-3.064 5.324-.803-.462q-2.446-1.408-3.965-1.213t-2.578 2.034q-.777 1.35-.425 2.595.344 1.214 1.753 2.025 1.899 1.093 6.202-1.043l.073-.036 3.874-1.887q4.096-2.047 6.729-2.095 2.614-.059 5.628 1.676 4.11 2.365 4.99 5.998t-1.632 7.998q-2.613 4.54-6.246 5.42-3.622.86-8.437-1.91-.509-.293-1.638-1.047zm24.014-16.211L84.12 526.688l3.683-5.333 28.617 19.763zm-2.646-25.871q6.615 5.468 8.971 6.126 2.354.627 4.08-1.462 1.698-2.054.645-4.184-1.055-2.161-7.74-7.686-6.684-5.525-9.023-6.169t-4.05 1.428q-1.713 2.071-.64 4.247t7.757 7.7m-4.215 5.1q-4.265-3.524-6.475-6.025-2.228-2.515-2.812-4.433-.863-2.677-.309-4.943.555-2.266 2.742-4.912t4.308-3.617 4.927-.645q2.028.24 4.886 1.958 2.873 1.7 7.12 5.21 4.23 3.497 6.458 6.012 2.21 2.5 2.843 4.43.849 2.694.294 4.96t-2.741 4.913-4.308 3.617-4.913.627q-1.993-.212-4.866-1.912-2.89-1.714-7.154-5.24m31.444-10.21-23.973-25.194 4.826-4.592 23.326 11.377-16.897-17.495 4.434-4.219 23.973 25.195-4.793 4.56-23.407-11.363 16.928 17.529zm17.246-33.91 4.402-3.315-10.993-9.984zm.96 16.745-14.656-32.498 6.946-5.229 27.232 23.031-5.575 4.197-6.628-5.95-5.954 4.482 3.921 7.988zm22.476-16.445-17.922-29.804 5.554-3.34 14.873 24.734 10.025-6.028 3.05 5.07zm28.155-37.505 3.455-1.395q2.618-1.057 3.2-2.51.603-1.461-.487-4.162-.972-2.409-2.47-2.924-1.5-.515-4.431.668l-2.953 1.192zm1.714 20.958-13.018-32.25 10.763-4.345q4.88-1.97 7.819-.842 2.951 1.098 4.76 5.58 1.268 3.14.852 5.427-.425 2.266-2.539 3.485 4.729-.594 7.377 5.424l.17.419 1.891 4.204q.82 1.788 1.645 2.746.816.937 1.933 1.411l-7.12 2.874q-.58-.715-1.146-1.753-.574-1.06-1.427-3.053l-1.445-3.338-.347-.858q-1.132-2.806-2.749-3.372-1.616-.565-5.28.915l-2.053.828 5.715 14.156zm24.954-9.616-9.449-33.47 17.191-4.853 1.571 5.564-10.997 3.105 2.184 7.737 10.237-2.89 1.497 5.303-10.236 2.89 2.601 9.215 11.258-3.179 1.595 5.65zm39.08-8.867-1.101-3.71q-.567 2.637-2.103 3.993-1.514 1.352-4.5 1.85-5.39.902-8.276-2.806-2.864-3.711-4.68-14.581-.85-5.079-.847-8.216.021-3.163.855-5.02.994-2.272 3.036-3.62 2.041-1.35 5.315-1.897 5.524-.923 8.566 1.248 3.064 2.167 3.983 7.668l.146.869-5.97.998-.06-.357q-.513-3.074-1.932-4.44-1.4-1.39-3.672-1.011-2.785.465-3.452 2.775t.87 11.509q1.214 7.26 2.603 9.547t3.951 1.859q2.54-.425 3.318-2.34.802-1.92.11-6.064l-.198-1.18-4.433.74-.915-5.479 10.58-1.768 3.127 18.71zm8.448-36.071 6.474-.298 1.078 23.416q.185 4.016 1.222 5.415 1.058 1.375 3.562 1.26 2.481-.114 3.362-1.602.904-1.488.716-5.571l-1.074-23.327 6.384-.293 1.104 23.98q.161 3.497-.17 5.14-.31 1.619-1.179 2.88-1.314 1.891-3.573 2.922-2.26 1.008-5.417 1.154-5.956.274-8.533-2.184-2.556-2.482-2.852-8.912zm29.233 33.931 2.196-34.709 6.469.41-1.823 28.803 11.674.74-.373 5.904zm31.475-10.972 5.436.903-.35-14.846zm-11.465 12.243 13.429-33.023 8.577 1.424 2.099 35.603-6.884-1.143-.261-8.903-7.352-1.221-3.08 8.348zm29.717 5.67 7.544-28.044-7.197-1.936 1.49-5.54 20.652 5.556-1.49 5.54-7.197-1.937-7.544 28.045zm16.667 4.871 11.457-32.837 6.12 2.135-11.458 32.837zm24.241-9.417q-3.516 7.828-3.525 10.275.02 2.435 2.492 3.545 2.431 1.092 4.205-.488 1.804-1.591 5.357-9.502 3.553-7.91 3.553-10.337t-2.451-3.527-4.265.511-5.366 9.523m-6.036-2.711q2.267-5.047 4.092-7.842 1.833-2.816 3.528-3.887 2.351-1.543 4.683-1.61 2.333-.066 5.464 1.34t4.63 3.194q1.5 1.787 1.93 4.58.306 2.018-.592 5.23-.877 3.22-3.134 8.247-2.248 5.006-4.082 7.821-1.825 2.795-3.517 3.917-2.372 1.534-4.704 1.6t-5.464-1.34-4.63-3.193-1.909-4.57q-.325-1.978.552-5.199.886-3.241 3.153-8.288m18.188 27.608 17.927-29.801 5.708 3.434-4.777 25.51 12.382-20.935 5.245 3.154-17.927 29.802-5.67-3.411 4.742-25.583-12.405 20.973zm51.253 21.001 4.792 4.091q-.147.172-.423.53-.262.341-.423.53-3.915 4.586-7.762 5.162-3.815.573-7.8-2.83-1.889-1.612-2.82-3.269-.947-1.639-1.046-3.505-.167-2.518 1.337-5.392 1.503-2.873 6.606-8.85 3.49-4.088 5.87-6.214 2.393-2.143 4.092-2.741 2.619-.912 4.888-.37 2.284.525 4.74 2.622 4.019 3.431 4.05 7.08.05 3.665-3.893 8.317l-4.774-4.077.542-.635q1.833-2.147 2.024-3.796.222-1.651-1.204-2.868-1.769-1.51-3.668-.608-1.882.917-7.527 7.53-6.1 7.144-6.802 9.218-.684 2.088 1.085 3.599 1.649 1.407 3.328.762 1.694-.662 4.48-3.925zm17.326 9.647q-6.282 5.847-7.241 8.098-.928 2.251.918 4.235 1.816 1.95 4.064 1.185 2.28-.765 8.629-6.673 6.348-5.908 7.291-8.143t-.888-4.203-4.128-1.187-8.645 6.689m-4.507-4.843q4.05-3.77 6.817-5.635 2.784-1.882 4.761-2.21 2.767-.508 4.942.337 2.174.845 4.513 3.358t3.025 4.742-.003 4.97q-.502 1.98-2.577 4.589-2.06 2.626-6.094 6.38-4.017 3.739-6.8 5.62-2.768 1.866-4.763 2.242-2.782.491-4.957-.354t-4.513-3.358q-2.339-2.512-3.026-4.742t.019-4.953q.469-1.948 2.529-4.575 2.076-2.642 6.126-6.411zm6.194 32.386 28.43-20.03 5.619 7.974-15.661 16.864 21.15-9.073 5.619 7.975-28.43 20.03-3.564-5.057 25.296-17.657-28.951 12.469-2.29-3.25 21.485-23.065-25.126 17.897zm19.781 28.867 31.14-15.483 4.344 8.736-18.039 14.29 22.282-5.757 4.344 8.736-31.142 15.483-2.754-5.54 27.682-13.613-30.508 7.93-1.77-3.559 24.738-19.537-27.552 13.875zm14.76 31.675 32.567-12.2 2.274 6.07-32.568 12.2zm15.942 7.629 1.769 6.235-2.151.61q-3.085.875-4 1.956-.886 1.096-.35 2.986.561 1.977 1.85 2.715 1.295.76 3.25.205 1.5-.425 2.361-1.444.883-1.025 1.9-3.896l1.354-3.834q1.697-4.941 3.245-6.601 1.554-1.638 4.379-2.439 4.214-1.195 7.313.626 3.098 1.82 4.343 6.21 1.318 4.648-.521 7.846-1.84 3.198-6.598 4.547-.478.136-.745.188-.26.074-.462.108l-1.676-5.91.89-.253q2.717-.77 3.637-1.993t.342-3.266q-.425-1.5-1.563-2.116-1.109-.6-2.673-.157-2.108.598-3.58 5.17l-.026.078-1.351 4.092q-1.392 4.362-3.195 6.282-1.781 1.913-5.127 2.862-4.563 1.294-7.779-.611t-4.59-6.75q-1.43-5.04.475-8.256 1.911-3.195 7.256-4.71.565-.16 1.893-.443zm6.98 25.817 1.07 6.392-2.205.37q-3.163.529-4.19 1.502-1.003.992-.678 2.93.34 2.027 1.539 2.902 1.203.898 3.208.562 1.537-.257 2.505-1.175.99-.921 2.318-3.662l1.768-3.662q2.232-4.724 3.954-6.203 1.725-1.456 4.62-1.94 4.321-.724 7.2 1.427t3.632 6.65q.798 4.767-1.383 7.742-2.18 2.976-7.059 3.792-.49.082-.76.105-.268.044-.472.056l-1.014-6.059.913-.152q2.784-.466 3.834-1.581t.7-3.208q-.258-1.537-1.32-2.275-1.036-.72-2.64-.451-2.16.361-4.129 4.744l-.033.074-1.794 3.918q-1.865 4.182-3.869 5.891-1.98 1.706-5.41 2.28-4.678.783-7.665-1.465t-3.818-7.215q-.865-5.167 1.383-8.154 2.251-2.964 7.73-3.881.58-.097 1.931-.232zm-8.257 27.772 34.657-2.902.54 6.458-34.656 2.903zm18.47 18.308q-8.581-.024-10.82.963-2.216 1.01-2.223 3.72-.008 2.665 2.158 3.642 2.187 1 10.86 1.024 8.671.025 10.887-.963 2.216-.987 2.223-3.674.008-2.688-2.202-3.688t-10.883-1.024m.02-6.617q5.532.016 8.828.545 3.318.528 4.986 1.64 2.367 1.52 3.377 3.622 1.01 2.103 1 5.536t-1.031 5.53-3.398 3.626q-1.72 1.102-5.018 1.59-3.298.51-8.808.494-5.488-.015-8.806-.544-3.296-.529-5.01-1.618-2.366-1.542-3.376-3.645t-1.001-5.536 1.032-5.53 3.397-3.603q1.675-1.102 4.973-1.612 3.321-.51 8.854-.495m-17.812 27.852 34.518 4.245-.813 6.612-25.245 6.02 24.162 2.789-.747 6.074-34.518-4.245.808-6.567 25.298-6.081-24.207-2.795z" style="font-style:normal;font-variant:normal;font-weight:700;font-stretch:condensed;font-size:46.25px;font-family:&quot;Swis721 Cn BT&quot;;-inkscape-font-specification:&quot;Swis721 Cn BT Bold Condensed&quot;"/></g><g style="font-style:normal;font-variant:normal;font-weight:700;font-stretch:condensed;font-size:25px;line-height:125%;font-family:&quot;Swis721 Cn BT&quot;;-inkscape-font-specification:&quot;Swis721 Cn BT Bold Condensed&quot;;text-align:start;letter-spacing:0;word-spacing:0;writing-mode:lr-tb;text-anchor:start;fill:#000;fill-opacity:1;stroke:none;stroke-width:1px;stroke-linecap:butt;stroke-linejoin:miter;stroke-opacity:1"><path d="m78.363 772.906 1.535 3.396q1.163 2.572 2.638 3.094 1.485.543 4.14-.657 2.366-1.07 2.82-2.588t-.85-4.4l-1.311-2.901zm-20.87 2.57 31.69-14.326 4.78 10.577q2.169 4.794 1.163 7.777-.976 2.994-5.38 4.985-3.087 1.395-5.389 1.073-2.281-.332-3.585-2.394.787 4.7-5.118 7.593l-.411.186-4.124 2.062q-1.753.892-2.676 1.755-.903.855-1.331 1.99l-3.163-6.996q.69-.61 1.705-1.217 1.035-.617 2.992-1.551l3.275-1.58.844-.382q2.757-1.246 3.256-2.884t-1.13-5.24l-.911-2.016-13.91 6.289zm12.38 26.159 30.08-17.457 8.966 15.45-5 2.902-5.736-9.883-6.953 4.035 5.339 9.2-4.766 2.766-5.34-9.2-8.28 4.806 5.871 10.118-5.078 2.947zm32.445 15.217 1.584 2.198q1.77 2.455 3.436 2.758 1.684.29 4.01-1.388 2.345-1.69 2.583-3.253.269-1.558-1.567-4.104l-1.637-2.272zm-19.523 6.36 28.213-20.335 6.576 9.124q3.01 4.177 2.462 7.356-.548 3.178-4.798 6.242-4.177 3.01-7.642 2.53-3.433-.477-6.325-4.489l-2.76-3.829-11.963 8.623zm42.198-1.225 4.332 4.82-17.436 15.668q-2.99 2.687-3.416 4.375-.395 1.69 1.28 3.555 1.661 1.848 3.37 1.587 1.724-.244 4.765-2.976l17.369-15.607 4.271 4.754-17.856 16.045q-2.604 2.34-4.085 3.124-1.449.786-2.975.912-2.296.181-4.525-.913-2.211-1.11-4.324-3.461-3.985-4.435-3.715-7.987.301-3.55 5.089-7.851zm2.443 45.634 1.983 1.78q1.865 1.675 3.436 1.446 1.586-.245 3.623-2.514 2.111-2.353 2.087-3.983t-2.292-3.666l-1.446-1.297zm10.5-11.696 1.612 1.448q1.815 1.63 3.213 1.458t3.3-2.289q1.704-1.9 1.617-3.222-.056-1.324-1.989-3.059l-1.478-1.327zm-18.493 11.168 23.232-25.88 7.747 6.954q3.327 2.987 3.553 5.981.242 3.01-2.639 6.22-2.308 2.57-4.382 3.258-2.057.703-3.91-.445 1.589 1.882 1.194 4.35-.362 2.466-2.655 5.02-3.696 4.118-7.162 4.497-3.45.394-7.096-2.88zm20.699 17.961 20.598-28.022 5.223 3.84-17.094 23.253 9.425 6.929-3.504 4.767zm20.249 14.281 18.483-29.46 5.49 3.446-18.483 29.459zm30.379 3.11 5.584 2.918q-.105.2-.294.61-.179.391-.294.612-2.792 5.344-6.413 6.764-3.591 1.41-8.235-1.016-2.201-1.15-3.48-2.557-1.288-1.387-1.801-3.184-.725-2.417.1-5.554.823-3.137 4.463-10.102 2.489-4.764 4.333-7.367 1.855-2.623 3.377-3.586 2.35-1.473 4.683-1.452 2.343.001 5.206 1.497 4.683 2.448 5.529 5.998.865 3.561-1.938 8.976l-5.565-2.908.387-.74q1.308-2.502 1.125-4.152-.152-1.66-1.813-2.527-2.062-1.078-3.712.226-1.63 1.315-5.656 9.02-4.35 8.327-4.571 10.505-.201 2.188 1.86 3.265 1.922 1.004 3.415 0 1.503-1.023 3.49-4.826zm30.517 7.637q-2.726 8.138-2.494 10.573.26 2.421 2.83 3.282 2.527.847 4.136-.9 1.638-1.762 4.393-9.985t2.515-10.637-2.787-3.267-4.193.929-4.4 10.005m-6.274-2.101q1.757-5.247 3.297-8.208 1.547-2.983 3.127-4.216 2.188-1.768 4.502-2.064 2.315-.297 5.57.794 3.254 1.09 4.923 2.721 1.668 1.63 2.371 4.367.504 1.979-.072 5.263-.555 3.291-2.305 8.516-1.743 5.204-3.29 8.186-1.54 2.962-3.113 4.245-2.21 1.76-4.524 2.057t-5.569-.794-4.923-2.721q-1.669-1.63-2.35-4.36-.519-1.936.036-5.227.562-3.313 2.32-8.56m23.172 25.544 7.642-33.928 17.735 3.995-1.25 5.551-11.412-2.57-1.807 8.02 10.774 2.426-1.221 5.42-10.773-2.427-3.365 14.937zm42.837 7.292 2.243-28.955-7.43-.576.443-5.719 21.322 1.652-.443 5.72-7.43-.576-2.243 28.955zm19.538 1.234-.84-34.768 6.434-.156.33 13.636 8.872-.215-.33-13.636 6.434-.155.841 34.767-6.434.156-.381-15.758-8.873.214.382 15.759zm29.817-1.257-4.397-34.5 17.72-2.258.73 5.735-11.335 1.445 1.017 7.975 10.551-1.345.697 5.466-10.551 1.345 1.21 9.498 11.604-1.479.743 5.825zm39.024-26.981 2.607-.741q2.91-.828 3.763-2.29.845-1.486.06-4.244-.79-2.78-2.179-3.536-1.373-.784-4.392.075l-2.694.766zm-.667 20.522-9.513-33.451 10.818-3.076q4.952-1.409 7.755.19 2.802 1.597 4.235 6.637 1.408 4.952-.224 8.046-1.617 3.066-6.374 4.419l-4.54 1.29 4.033 14.185zm26.263-7.854-13.047-32.24 5.966-2.414 5.117 12.644 8.227-3.33-5.117-12.643 5.966-2.415 13.046 32.238-5.966 2.415-5.913-14.612-8.227 3.33 5.913 14.611zm27.403-11.797-15.683-31.042 5.785-2.922 15.683 31.04zm12.963-6.675-17.924-29.803 5.554-3.34 14.875 24.733 10.025-6.03 3.05 5.07zm20.98-13.185-20.067-28.404 5.293-3.74 20.067 28.404zm4.181-27.508 2.084-1.732q2.327-1.934 2.514-3.617.173-1.7-1.66-3.905-1.848-2.223-3.424-2.353-1.573-.16-3.987 1.846l-2.153 1.79zm7.691 19.039-22.231-26.745 8.648-7.189q3.96-3.291 7.169-2.964 3.209.328 6.558 4.357 3.291 3.96 3.05 7.45-.238 3.457-4.042 6.619l-3.63 3.017 9.428 11.34zm11.21-35.99 1.896-1.937q2.117-2.162 2.131-3.855-.002-1.709-2.052-3.715-2.065-2.022-3.646-1.99-1.58.001-3.777 2.244l-1.959 2.001zm9.599 18.15-24.851-24.328 7.867-8.037q3.602-3.679 6.828-3.681t6.97 3.663q3.679 3.602 3.796 7.098.117 3.464-3.343 6.998l-3.302 3.373 10.537 10.316zm18.754-19.971-26.686-22.302 4.157-4.973 26.685 22.302zm9.337-11.208-28.446-20.008 3.833-5.449 25.104 6.586-19.998-13.845 3.52-5.006 28.447 20.008-3.807 5.413-25.18-6.557 20.035 13.871zm16.675-24.64-30.354-16.974 8.718-15.591 5.046 2.821-5.577 9.974 7.017 3.924 5.191-9.284 4.81 2.69-5.192 9.283 8.357 4.673 5.71-10.21 5.125 2.866zm.513-26.398 2.59-5.942 2.049.893q2.94 1.281 4.332 1.026 1.38-.285 2.165-2.086.821-1.884.293-3.272-.52-1.41-2.383-2.221-1.428-.623-2.74-.381-1.333.232-3.94 1.805l-3.48 2.106q-4.446 2.742-6.696 3.043-2.24.28-4.932-.893-4.016-1.75-5.256-5.123t.582-7.555q1.93-4.43 5.382-5.735 3.45-1.305 7.984.67.456.2.695.328.248.109.426.21l-2.454 5.632-.849-.37q-2.588-1.128-4.075-.766t-2.336 2.308q-.623 1.428-.135 2.626.477 1.168 1.967 1.818 2.008.875 6.048-1.725l.069-.044 3.64-2.306q3.843-2.488 6.455-2.828 2.59-.35 5.779 1.04 4.348 1.894 5.625 5.407t-.734 8.13q-2.093 4.802-5.605 6.08-3.504 1.257-8.597-.962-.538-.235-1.744-.859z" style="font-size:46.25px;letter-spacing:2.20000005px"/></g><circle cx="65" cy="741.362" r="6" style="color:#000;clip-rule:nonzero;display:inline;overflow:visible;visibility:visible;opacity:1;isolation:auto;mix-blend-mode:normal;color-interpolation:sRGB;color-interpolation-filters:linearRGB;solid-color:#000;solid-opacity:1;fill:#000;fill-opacity:1;fill-rule:evenodd;stroke:none;stroke-width:1;stroke-linecap:butt;stroke-linejoin:round;stroke-miterlimit:4;stroke-dasharray:none;stroke-dashoffset:0;stroke-opacity:1;color-rendering:auto;image-rendering:auto;shape-rendering:auto;text-rendering:auto"/><circle cx="541" cy="741.362" r="6" style="color:#000;clip-rule:nonzero;display:inline;overflow:visible;visibility:visible;opacity:1;isolation:auto;mix-blend-mode:normal;color-interpolation:sRGB;color-interpolation-filters:linearRGB;solid-color:#000;solid-opacity:1;fill:#000;fill-opacity:1;fill-rule:evenodd;stroke:none;stroke-width:1;stroke-linecap:butt;stroke-linejoin:round;stroke-miterlimit:4;stroke-dasharray:none;stroke-dashoffset:0;stroke-opacity:1;color-rendering:auto;image-rendering:auto;shape-rendering:auto;text-rendering:auto"/></g></svg>