<svg xmlns="http://www.w3.org/2000/svg" width="640" height="480"><g transform="translate(525.474 137.465)"><rect width="639.995" height="479.996" x="-114.523" y="-342.531" ry="39.355" style="color:#000;fill:#fff;fill-opacity:1;stroke:none;stroke-width:.54464811;marker:none;visibility:visible;display:inline;overflow:visible" transform="scale(-1)"/><path d="M-487.013-137.463c-21.315 0-38.461 17.54-38.461 39.342v293.783h67.362l240.697-293.405h331.94v-.378c0-21.803-17.146-39.342-38.46-39.342zm354.382 67.433-240.696 293.406-152.147.377v11.63h157.167l240.696-293.406h242.137V-70.03zm94.197 39.72L-279.13 263.095l-246.344.378v11.629h251.363L-33.414-18.304h147.94V-30.31zm78.03 39.72L-201.1 302.815h-324.373v.378c0 21.803 17.146 39.342 38.46 39.342H76.065c21.315 0 38.462-17.54 38.462-39.342V9.41z" style="color:#000;fill:#0038a8;fill-opacity:1;stroke:none;stroke-width:.54464811;marker:none;visibility:visible;display:inline;overflow:visible"/><rect width="513.431" height="385.048" x="3546.901" y="663.505" ry="40.128" style="color:#000;fill:#0038a8;fill-opacity:1;stroke:#000;stroke-width:.10242781;stroke-linecap:butt;stroke-linejoin:miter;stroke-miterlimit:4;stroke-opacity:1;stroke-dasharray:none;stroke-dashoffset:0;marker:none;visibility:visible;display:inline;overflow:visible"/><path d="M4036.276 708.433v19.338h-189.141l-185.26 220.558h-115.283l-.535-19.102h53.403l185.207-220.544z" style="fill:#fff;stroke:#000;stroke-width:1px;stroke-linecap:butt;stroke-linejoin:miter;stroke-opacity:1"/><path d="M4036.276 735.521v19.339h-106.904l-186.108 220.863h-197.207v-19.089l119.117-.398 184.991-220.465z" style="fill:#fff;stroke:#000;stroke-width:1px;stroke-linecap:butt;stroke-linejoin:miter;stroke-opacity:1"/><path d="m4036.815 762.93.035 19.089" style="fill:none;stroke:#000;stroke-width:1px;stroke-linecap:butt;stroke-linejoin:miter;stroke-opacity:1"/><path d="M3546.057 983.782h200.716L3932.09 762.93h104.186v19.089l-47.63-.335-179.774 221.187h-262.815z" style="fill:#fff;stroke:#000;stroke-width:1px;stroke-linecap:butt;stroke-linejoin:miter;stroke-opacity:1"/><rect width="561.388" height="22.927" x="3546.207" y="1043.808" ry="0" style="color:#000;fill:none;stroke:#000;stroke-width:.30020446;stroke-linecap:butt;stroke-linejoin:miter;stroke-miterlimit:4;stroke-opacity:1;stroke-dasharray:none;stroke-dashoffset:0;marker:none;visibility:visible;display:inline;overflow:visible"/><rect width="561.388" height="9.647" x="3546.314" y="1067.035" ry="0" style="color:#000;fill:none;stroke:#000;stroke-width:.30000347;stroke-linecap:butt;stroke-linejoin:miter;stroke-miterlimit:4;stroke-opacity:1;stroke-dasharray:none;stroke-dashoffset:0;marker:none;visibility:visible;display:inline;overflow:visible"/></g></svg>