<svg xmlns="http://www.w3.org/2000/svg" width="48" height="48"><linearGradient id="a" x1="24" x2="24" y1="44" y2="4" gradientUnits="userSpaceOnUse"><stop offset="0" stop-color="#0176d0"/><stop offset="1" stop-color="#16538c"/></linearGradient><path fill="url(#a)" d="M44 24c0 11.04-8.96 20-20 20-8.39 0-15.57-5.16-18.53-12.48-.09-.2-.16-.4-.24-.6-.07-.19-.14-.39-.2-.59C4.36 28.34 4 26.21 4 24c0-.17 0-.35.02-.52-.01-.17 0-.35.01-.52C4.57 12.4 13.3 4 24 4c11.04 0 20 8.95 20 20"/><circle cx="28.5" cy="18.5" r="3.5" fill="#fff"/><path d="M28.5 14.5c-2.21 0-4 1.79-4 4s1.79 4 4 4 4-1.79 4-4-1.79-4-4-4m0 7.5c-1.93 0-3.5-1.57-3.5-3.5s1.57-3.5 3.5-3.5 3.5 1.57 3.5 3.5-1.57 3.5-3.5 3.5" opacity=".07"/><path fill="#fff" d="M28.5 10c-4.69 0-8.5 3.81-8.5 8.5 0 .18.02.35.03.52L17 24c-2.07 0-3.92.9-5.2 2.32L4 24c0 2.21.36 4.34 1.03 6.33l5.04 1.61A6.994 6.994 0 0 0 17 38c3.87 0 7-3.13 7-7 0-.37-.04-.73-.09-1.08l5.06-2.94c4.47-.25 8.03-3.95 8.03-8.48 0-4.69-3.81-8.5-8.5-8.5M17 36c-2.18 0-4.02-1.41-4.7-3.35l3.75 1.19.01-.01c0 .01.01.01.02.01.14.04.27.08.41.11.17.03.34.05.51.05 1.66 0 3-1.34 3-3 0-1.3-.85-2.41-2.02-2.82l-.03-.03-3.91-1.16A5 5 0 0 1 17 26c2.76 0 5 2.24 5 5s-2.24 5-5 5m11.5-12c-3.04 0-5.5-2.46-5.5-5.5s2.46-5.5 5.5-5.5 5.5 2.46 5.5 5.5-2.46 5.5-5.5 5.5"/><path d="M33.4 17.49c-.07-.32-.17-.63-.29-.93-.06-.15-.14-.3-.21-.44a5.16 5.16 0 0 0-2.02-2.02c-.14-.07-.29-.15-.44-.21-.3-.12-.61-.22-.93-.29-.33-.06-.67-.1-1.01-.1s-.68.04-1.01.1c-.32.07-.63.17-.93.29-.15.06-.3.14-.44.21-.85.47-1.55 1.17-2.02 2.02-.07.14-.15.29-.21.44-.12.3-.22.61-.29.93-.06.33-.1.67-.1 1.01s.04.68.1 1.01c.07.32.17.63.29.93.06.15.14.3.21.44.47.85 1.17 1.55 2.02 2.02.14.07.29.15.44.21.3.12.61.22.93.29.33.06.67.1 1.01.1s.68-.04 1.01-.1c.32-.07.63-.17.93-.29.15-.06.3-.14.44-.21.85-.47 1.55-1.17 2.02-2.02.07-.14.15-.29.21-.44.12-.3.22-.61.29-.93.06-.33.1-.67.1-1.01s-.04-.68-.1-1.01m-4.9 5.01c-2.21 0-4-1.79-4-4s1.79-4 4-4 4 1.79 4 4-1.79 4-4 4m-11.5 4c-.59 0-1.16.12-1.7.34l2.79.83.12.06.01.01c1.37.51 2.28 1.81 2.28 3.26 0 1.93-1.57 3.5-3.5 3.5-.19 0-.39-.02-.59-.06h-.03l-.01.03-.47-.15-2.63-.84A4.48 4.48 0 0 0 17 35.5c2.48 0 4.5-2.02 4.5-4.5s-2.02-4.5-4.5-4.5m0 0c-.59 0-1.16.12-1.7.34l2.79.83.12.06.01.01c1.37.51 2.28 1.81 2.28 3.26 0 1.93-1.57 3.5-3.5 3.5-.19 0-.39-.02-.59-.06h-.03l-.01.03-.47-.15-2.63-.84A4.48 4.48 0 0 0 17 35.5c2.48 0 4.5-2.02 4.5-4.5s-2.02-4.5-4.5-4.5M28.5 9c-5.24 0-9.5 4.26-9.5 9.5 0 .09 0 .18.01.27l-2.58 4.25c-1.84.13-3.58.9-4.92 2.17l-7.22-2.15-.26-.08c-.01.17-.02.35-.01.52l.12.04 7.51 2.24a7.5 7.5 0 0 1 5.07-2.25l2.8-4.61c-.01-.13-.02-.27-.02-.4 0-4.96 4.04-9 9-9s9 4.04 9 9c0 4.73-3.67 8.64-8.38 8.97l-4.67 2.72c.03.28.05.55.05.81 0 4.14-3.36 7.5-7.5 7.5-3.63 0-6.75-2.64-7.38-6.18l-4.39-1.4c.08.2.15.4.24.6l3.72 1.19C9.98 36.34 13.23 39 17 39c4.41 0 8-3.59 8-8 0-.18-.01-.36-.02-.54l4.29-2.5c4.92-.4 8.73-4.51 8.73-9.46 0-5.24-4.26-9.5-9.5-9.5M17 34.5c-.19 0-.39-.02-.59-.06h-.03l-.01.03-.47-.15-2.63-.84A4.48 4.48 0 0 0 17 35.5c2.48 0 4.5-2.02 4.5-4.5s-2.02-4.5-4.5-4.5c-.59 0-1.16.12-1.7.34l2.79.83.12.06.01.01c1.37.51 2.28 1.81 2.28 3.26 0 1.93-1.57 3.5-3.5 3.5m0-8c-.59 0-1.16.12-1.7.34l2.79.83.12.06.01.01c1.37.51 2.28 1.81 2.28 3.26 0 1.93-1.57 3.5-3.5 3.5-.19 0-.39-.02-.59-.06h-.03l-.01.03-.47-.15-2.63-.84A4.48 4.48 0 0 0 17 35.5c2.48 0 4.5-2.02 4.5-4.5s-2.02-4.5-4.5-4.5m0 0c-.59 0-1.16.12-1.7.34l2.79.83.12.06.01.01c1.37.51 2.28 1.81 2.28 3.26 0 1.93-1.57 3.5-3.5 3.5-.19 0-.39-.02-.59-.06h-.03l-.01.03-.47-.15-2.63-.84A4.48 4.48 0 0 0 17 35.5c2.48 0 4.5-2.02 4.5-4.5s-2.02-4.5-4.5-4.5m0 0c-.59 0-1.16.12-1.7.34l2.79.83.12.06.01.01c1.37.51 2.28 1.81 2.28 3.26 0 1.93-1.57 3.5-3.5 3.5-.19 0-.39-.02-.59-.06h-.03l-.01.03-.47-.15-2.63-.84A4.48 4.48 0 0 0 17 35.5c2.48 0 4.5-2.02 4.5-4.5s-2.02-4.5-4.5-4.5m0 0c-.59 0-1.16.12-1.7.34l2.79.83.12.06.01.01c1.37.51 2.28 1.81 2.28 3.26 0 1.93-1.57 3.5-3.5 3.5-.19 0-.39-.02-.59-.06h-.03l-.01.03-.47-.15-2.63-.84A4.48 4.48 0 0 0 17 35.5c2.48 0 4.5-2.02 4.5-4.5s-2.02-4.5-4.5-4.5" opacity=".05"/><path d="M28.5 9.5c-4.96 0-9 4.04-9 9 0 .13.01.27.02.4l-2.8 4.61c-1.91.07-3.73.88-5.07 2.25l-7.51-2.24-.12-.04C4 23.65 4 23.83 4 24l7.8 2.32A6.98 6.98 0 0 1 17 24l3.03-4.98c-.01-.17-.03-.34-.03-.52 0-4.69 3.81-8.5 8.5-8.5s8.5 3.81 8.5 8.5c0 4.53-3.56 8.23-8.03 8.48l-5.06 2.94c.05.35.09.71.09 1.08 0 3.87-3.13 7-7 7-3.55 0-6.47-2.64-6.93-6.06l-5.04-1.61c.06.2.13.4.2.59l4.39 1.4c.63 3.54 3.75 6.18 7.38 6.18 4.14 0 7.5-3.36 7.5-7.5 0-.26-.02-.53-.05-.81l4.67-2.72c4.71-.33 8.38-4.24 8.38-8.97 0-4.96-4.04-9-9-9m0 14.5c3.04 0 5.5-2.46 5.5-5.5S31.54 13 28.5 13 23 15.46 23 18.5s2.46 5.5 5.5 5.5m-4.61-3.56c-.13-.3-.22-.61-.29-.93-.06-.33-.1-.67-.1-1.01s.04-.68.1-1.01c.07-.32.16-.63.29-.93.06-.15.14-.3.21-.44.47-.85 1.17-1.55 2.02-2.02.14-.07.29-.15.44-.21.3-.13.61-.22.93-.29.33-.06.67-.1 1.01-.1s.68.04 1.01.1c.32.07.63.16.93.29.15.06.3.14.44.21.85.47 1.55 1.17 2.02 2.02.07.14.15.29.21.44.13.3.22.61.29.93.06.33.1.67.1 1.01s-.04.68-.1 1.01c-.07.32-.16.63-.29.93-.06.15-.14.3-.21.44-.47.85-1.17 1.55-2.02 2.02-.14.07-.29.15-.44.21-.3.13-.61.22-.93.29-.33.06-.67.1-1.01.1s-.68-.04-1.01-.1c-.32-.07-.63-.16-.93-.29-.15-.06-.3-.14-.44-.21a5.16 5.16 0 0 1-2.02-2.02c-.07-.14-.15-.29-.21-.44M17 34c-.17 0-.34-.02-.51-.05-.14-.03-.27-.07-.41-.11-.01 0-.02 0-.02-.01l-.01.01-3.75-1.19C12.98 34.59 14.82 36 17 36c2.76 0 5-2.24 5-5s-2.24-5-5-5c-1.11 0-2.13.38-2.96.99l3.91 1.16.03.03C19.15 28.59 20 29.7 20 31c0 1.66-1.34 3-3 3m3.5-3c0-1.45-.91-2.75-2.28-3.26l-.01-.01-.12-.06-2.79-.83c.54-.22 1.11-.34 1.7-.34 2.48 0 4.5 2.02 4.5 4.5s-2.02 4.5-4.5 4.5a4.48 4.48 0 0 1-3.73-2.02l2.63.84.47.15.01-.03h.03c.2.04.4.06.59.06 1.93 0 3.5-1.57 3.5-3.5M17 26c-1.11 0-2.13.38-2.96.99l3.91 1.16.03.03C19.15 28.59 20 29.7 20 31c0 1.66-1.34 3-3 3-.17 0-.34-.02-.51-.05-.14-.03-.27-.07-.41-.11-.01 0-.02 0-.02-.01l-.01.01-3.75-1.19C12.98 34.59 14.82 36 17 36c2.76 0 5-2.24 5-5s-2.24-5-5-5m0 9.5a4.48 4.48 0 0 1-3.73-2.02l2.63.84.47.15.01-.03h.03c.2.04.4.06.59.06 1.93 0 3.5-1.57 3.5-3.5 0-1.45-.91-2.75-2.28-3.26l-.01-.01-.12-.06-2.79-.83c.54-.22 1.11-.34 1.7-.34 2.48 0 4.5 2.02 4.5 4.5s-2.02 4.5-4.5 4.5M28.5 13c-3.04 0-5.5 2.46-5.5 5.5s2.46 5.5 5.5 5.5 5.5-2.46 5.5-5.5-2.46-5.5-5.5-5.5m4.61 7.44c-.06.15-.14.3-.21.44-.47.85-1.17 1.55-2.02 2.02-.14.07-.29.15-.44.21-.3.13-.61.22-.93.29-.33.06-.67.1-1.01.1s-.68-.04-1.01-.1c-.32-.07-.63-.16-.93-.29-.15-.06-.3-.14-.44-.21a5.16 5.16 0 0 1-2.02-2.02c-.07-.14-.15-.29-.21-.44-.13-.3-.22-.61-.29-.93-.06-.33-.1-.67-.1-1.01s.04-.68.1-1.01c.07-.32.16-.63.29-.93.06-.15.14-.3.21-.44.47-.85 1.17-1.55 2.02-2.02.14-.07.29-.15.44-.21.3-.13.61-.22.93-.29.33-.06.67-.1 1.01-.1s.68.04 1.01.1c.32.07.63.16.93.29.15.06.3.14.44.21.85.47 1.55 1.17 2.02 2.02.07.14.15.29.21.44.13.3.22.61.29.93.06.33.1.67.1 1.01s-.04.68-.1 1.01c-.07.32-.16.63-.29.93M28.5 13c-3.04 0-5.5 2.46-5.5 5.5s2.46 5.5 5.5 5.5 5.5-2.46 5.5-5.5-2.46-5.5-5.5-5.5m4.61 7.44c-.06.15-.14.3-.21.44-.47.85-1.17 1.55-2.02 2.02-.14.07-.29.15-.44.21-.3.13-.61.22-.93.29-.33.06-.67.1-1.01.1s-.68-.04-1.01-.1c-.32-.07-.63-.16-.93-.29-.15-.06-.3-.14-.44-.21a5.16 5.16 0 0 1-2.02-2.02c-.07-.14-.15-.29-.21-.44-.13-.3-.22-.61-.29-.93-.06-.33-.1-.67-.1-1.01s.04-.68.1-1.01c.07-.32.16-.63.29-.93.06-.15.14-.3.21-.44.47-.85 1.17-1.55 2.02-2.02.14-.07.29-.15.44-.21.3-.13.61-.22.93-.29.33-.06.67-.1 1.01-.1s.68.04 1.01.1c.32.07.63.16.93.29.15.06.3.14.44.21.85.47 1.55 1.17 2.02 2.02.07.14.15.29.21.44.13.3.22.61.29.93.06.33.1.67.1 1.01s-.04.68-.1 1.01c-.07.32-.16.63-.29.93M17 26c-1.11 0-2.13.38-2.96.99l3.91 1.16.03.03C19.15 28.59 20 29.7 20 31c0 1.66-1.34 3-3 3-.17 0-.34-.02-.51-.05-.14-.03-.27-.07-.41-.11-.01 0-.02 0-.02-.01l-.01.01-3.75-1.19C12.98 34.59 14.82 36 17 36c2.76 0 5-2.24 5-5s-2.24-5-5-5m0 9.5a4.48 4.48 0 0 1-3.73-2.02l2.63.84.47.15.01-.03h.03c.2.04.4.06.59.06 1.93 0 3.5-1.57 3.5-3.5 0-1.45-.91-2.75-2.28-3.26l-.01-.01-.12-.06-2.79-.83c.54-.22 1.11-.34 1.7-.34 2.48 0 4.5 2.02 4.5 4.5s-2.02 4.5-4.5 4.5" opacity=".07"/><path d="M28.5 13c-3.04 0-5.5 2.46-5.5 5.5s2.46 5.5 5.5 5.5 5.5-2.46 5.5-5.5-2.46-5.5-5.5-5.5m4.61 7.44c-.06.15-.14.3-.21.44-.47.85-1.17 1.55-2.02 2.02-.14.07-.29.15-.44.21-.3.13-.61.22-.93.29-.33.06-.67.1-1.01.1s-.68-.04-1.01-.1c-.32-.07-.63-.16-.93-.29-.15-.06-.3-.14-.44-.21a5.16 5.16 0 0 1-2.02-2.02c-.07-.14-.15-.29-.21-.44-.13-.3-.22-.61-.29-.93-.06-.33-.1-.67-.1-1.01s.04-.68.1-1.01c.07-.32.16-.63.29-.93.06-.15.14-.3.21-.44.47-.85 1.17-1.55 2.02-2.02.14-.07.29-.15.44-.21.3-.13.61-.22.93-.29.33-.06.67-.1 1.01-.1s.68.04 1.01.1c.32.07.63.16.93.29.15.06.3.14.44.21.85.47 1.55 1.17 2.02 2.02.07.14.15.29.21.44.13.3.22.61.29.93.06.33.1.67.1 1.01s-.04.68-.1 1.01c-.07.32-.16.63-.29.93M28.5 13c-3.04 0-5.5 2.46-5.5 5.5s2.46 5.5 5.5 5.5 5.5-2.46 5.5-5.5-2.46-5.5-5.5-5.5m4.61 7.44c-.06.15-.14.3-.21.44-.47.85-1.17 1.55-2.02 2.02-.14.07-.29.15-.44.21-.3.13-.61.22-.93.29-.33.06-.67.1-1.01.1s-.68-.04-1.01-.1c-.32-.07-.63-.16-.93-.29-.15-.06-.3-.14-.44-.21a5.16 5.16 0 0 1-2.02-2.02c-.07-.14-.15-.29-.21-.44-.13-.3-.22-.61-.29-.93-.06-.33-.1-.67-.1-1.01s.04-.68.1-1.01c.07-.32.16-.63.29-.93.06-.15.14-.3.21-.44.47-.85 1.17-1.55 2.02-2.02.14-.07.29-.15.44-.21.3-.13.61-.22.93-.29.33-.06.67-.1 1.01-.1s.68.04 1.01.1c.32.07.63.16.93.29.15.06.3.14.44.21.85.47 1.55 1.17 2.02 2.02.07.14.15.29.21.44.13.3.22.61.29.93.06.33.1.67.1 1.01s-.04.68-.1 1.01c-.07.32-.16.63-.29.93M28.5 13c-3.04 0-5.5 2.46-5.5 5.5s2.46 5.5 5.5 5.5 5.5-2.46 5.5-5.5-2.46-5.5-5.5-5.5m4.61 7.44c-.06.15-.14.3-.21.44-.47.85-1.17 1.55-2.02 2.02-.14.07-.29.15-.44.21-.3.13-.61.22-.93.29-.33.06-.67.1-1.01.1s-.68-.04-1.01-.1c-.32-.07-.63-.16-.93-.29-.15-.06-.3-.14-.44-.21a5.16 5.16 0 0 1-2.02-2.02c-.07-.14-.15-.29-.21-.44-.13-.3-.22-.61-.29-.93-.06-.33-.1-.67-.1-1.01s.04-.68.1-1.01c.07-.32.16-.63.29-.93.06-.15.14-.3.21-.44.47-.85 1.17-1.55 2.02-2.02.14-.07.29-.15.44-.21.3-.13.61-.22.93-.29.33-.06.67-.1 1.01-.1s.68.04 1.01.1c.32.07.63.16.93.29.15.06.3.14.44.21.85.47 1.55 1.17 2.02 2.02.07.14.15.29.21.44.13.3.22.61.29.93.06.33.1.67.1 1.01s-.04.68-.1 1.01c-.07.32-.16.63-.29.93" opacity=".07"/></svg>